<svg xmlns="http://www.w3.org/2000/svg" viewBox="0 0 1200 630" fill="none">
  <!-- Hintergrund mit Gradient -->
  <defs>
    <linearGradient id="bgGrad" x1="0%" y1="0%" x2="100%" y2="100%">
      <stop offset="0%" style="stop-color:#0f172a"/>
      <stop offset="100%" style="stop-color:#1e293b"/>
    </linearGradient>
  </defs>
  
  <rect width="1200" height="630" fill="url(#bgGrad)"/>
  
  <!-- Dekorative Elemente -->
  <circle cx="100" cy="530" r="200" fill="#22c55e" opacity="0.05"/>
  <circle cx="1100" cy="100" r="250" fill="#22c55e" opacity="0.05"/>
  
  <!-- Logo/Icon links -->
  <g transform="translate(100, 215)">
    <circle cx="100" cy="100" r="90" fill="#1e293b" stroke="#22c55e" stroke-width="3" opacity="0.6"/>
    <!-- Blatt - einfaches sauberes Design -->
    <path d="M100 25 C55 50, 45 100, 70 145 L100 115 L130 145 C155 100, 145 50, 100 25Z" fill="#22c55e"/>
    <!-- Stiel -->
    <path d="M100 115 L100 170" stroke="#22c55e" stroke-width="8" stroke-linecap="round"/>
  </g>
  
  <!-- Text -->
  <text x="350" y="280" font-family="system-ui, -apple-system, sans-serif" font-size="72" font-weight="700" fill="#ffffff">
    Digitale PSM
  </text>
  <text x="350" y="350" font-family="system-ui, -apple-system, sans-serif" font-size="32" fill="#94a3b8">
    Pflanzenschutzmittel-Dokumentation
  </text>
  
  <!-- Feature-Badges -->
  <g transform="translate(350, 400)">
    <rect x="0" y="0" width="180" height="44" rx="22" fill="#22c55e" opacity="0.15"/>
    <text x="90" y="28" font-family="system-ui, sans-serif" font-size="18" fill="#22c55e" text-anchor="middle">BVL-Daten</text>
    
    <rect x="200" y="0" width="180" height="44" rx="22" fill="#22c55e" opacity="0.15"/>
    <text x="290" y="28" font-family="system-ui, sans-serif" font-size="18" fill="#22c55e" text-anchor="middle">SQLite lokal</text>
    
    <rect x="400" y="0" width="180" height="44" rx="22" fill="#22c55e" opacity="0.15"/>
    <text x="490" y="28" font-family="system-ui, sans-serif" font-size="18" fill="#22c55e" text-anchor="middle">Open Source</text>
  </g>
  
  <!-- URL unten -->
  <text x="600" y="580" font-family="system-ui, sans-serif" font-size="24" fill="#64748b" text-anchor="middle">
    digitale-psm.de
  </text>
  
  <!-- Rand -->
  <rect x="0" y="0" width="1200" height="630" fill="none" stroke="#22c55e" stroke-width="4" opacity="0.3"/>
</svg>
