<svg xmlns="http://www.w3.org/2000/svg" viewBox="0 0 1200 630" fill="none">
  <!-- Hintergrund mit Gradient -->
  <defs>
    <linearGradient id="bgGrad" x1="0%" y1="0%" x2="100%" y2="100%">
      <stop offset="0%" style="stop-color:#0f172a"/>
      <stop offset="100%" style="stop-color:#1e293b"/>
    </linearGradient>
    <linearGradient id="greenGrad" x1="0%" y1="0%" x2="0%" y2="100%">
      <stop offset="0%" style="stop-color:#22c55e"/>
      <stop offset="100%" style="stop-color:#16a34a"/>
    </linearGradient>
  </defs>
  
  <rect width="1200" height="630" fill="url(#bgGrad)"/>
  
  <!-- Dekorative Elemente -->
  <circle cx="100" cy="530" r="200" fill="#22c55e" opacity="0.05"/>
  <circle cx="1100" cy="100" r="250" fill="#22c55e" opacity="0.05"/>
  
  <!-- Logo/Icon links -->
  <g transform="translate(100, 215)">
    <circle cx="100" cy="100" r="90" fill="#1a1f2e" stroke="#22c55e" stroke-width="3"/>
    <!-- Blatt -->
    <path d="M100 30 C70 50, 60 80, 70 130 C80 140, 90 140, 100 130 C110 140, 120 140, 130 130 C140 80, 130 50, 100 30Z" 
          fill="#22c55e"/>
    <path d="M100 40 L100 120" stroke="#1a1f2e" stroke-width="4" stroke-linecap="round"/>
    <path d="M100 60 L85 80" stroke="#1a1f2e" stroke-width="3" stroke-linecap="round"/>
    <path d="M100 60 L115 80" stroke="#1a1f2e" stroke-width="3" stroke-linecap="round"/>
    <path d="M100 85 L80 105" stroke="#1a1f2e" stroke-width="3" stroke-linecap="round"/>
    <path d="M100 85 L120 105" stroke="#1a1f2e" stroke-width="3" stroke-linecap="round"/>
    <!-- Punkte -->
    <circle cx="60" cy="160" r="8" fill="#22c55e" opacity="0.6"/>
    <circle cx="100" cy="160" r="8" fill="#22c55e" opacity="0.8"/>
    <circle cx="140" cy="160" r="8" fill="#22c55e" opacity="0.6"/>
  </g>
  
  <!-- Text -->
  <text x="350" y="280" font-family="system-ui, -apple-system, sans-serif" font-size="72" font-weight="700" fill="#ffffff">
    Digitale PSM
  </text>
  <text x="350" y="350" font-family="system-ui, -apple-system, sans-serif" font-size="32" fill="#94a3b8">
    Pflanzenschutzmittel-Dokumentation
  </text>
  
  <!-- Feature-Badges -->
  <g transform="translate(350, 400)">
    <rect x="0" y="0" width="180" height="44" rx="22" fill="#22c55e" opacity="0.15"/>
    <text x="90" y="28" font-family="system-ui, sans-serif" font-size="18" fill="#22c55e" text-anchor="middle">BVL-Daten</text>
    
    <rect x="200" y="0" width="180" height="44" rx="22" fill="#22c55e" opacity="0.15"/>
    <text x="290" y="28" font-family="system-ui, sans-serif" font-size="18" fill="#22c55e" text-anchor="middle">SQLite lokal</text>
    
    <rect x="400" y="0" width="180" height="44" rx="22" fill="#22c55e" opacity="0.15"/>
    <text x="490" y="28" font-family="system-ui, sans-serif" font-size="18" fill="#22c55e" text-anchor="middle">Open Source</text>
  </g>
  
  <!-- URL unten -->
  <text x="600" y="580" font-family="system-ui, sans-serif" font-size="24" fill="#64748b" text-anchor="middle">
    digitale-psm.de
  </text>
  
  <!-- Rand -->
  <rect x="0" y="0" width="1200" height="630" fill="none" stroke="#22c55e" stroke-width="4" opacity="0.3"/>
</svg>
