<svg xmlns="http://www.w3.org/2000/svg" xmlns:xlink="http://www.w3.org/1999/xlink" id="Ebene_1" x="0px" y="0px" viewBox="0 0 513.07 238.11" style="enable-background:new 0 0 513.07 238.11;" xml:space="preserve"><style type="text/css">	.st0{fill:#95C11F;}	.st1{fill:#007AC2;}</style><g>	<path class="st0" d="M39.47,145.11c-1.41,0.01-2.86,0.02-4.26,0.03c-9.14,0.07-18.59,0.13-27.88,0.13l-2.76,0  c-0.52,0-1.91,0.73-1.91,1.49c0,0.08,0.03,0.75,0.93,0.75l2.7,0c9.22,0,18.6-0.07,27.67-0.13c1.8-0.01,3.64-0.02,5.46-0.04  c-0.01-0.43-0.03-0.86-0.03-1.32C39.4,145.71,39.45,145.42,39.47,145.11 M506.14,145.52c0-0.08-0.03-0.75-0.93-0.75  c-18.26-0.04-36.83-0.44-54.79-0.83c-16.54-0.36-33.64-0.73-50.46-0.82c-3.57-0.02-7.15-0.03-10.72-0.03  c-13.84,0-26.64,0.14-39.15,0.44c-5.7,0.13-11.49,0.33-17.09,0.51c-10.24,0.34-20.83,0.69-31.25,0.69l-1.46,0  c-16.81-0.05-33.49-0.64-50.53-1.29c-4.01-0.15-8.19-0.23-12.42-0.23c-10.59,0-21.96,0.46-35.79,1.46  c-10.92,0.79-23.37,1.59-36.25,1.98c-4.05-0.23-8.17-0.46-12.83-0.67c-6.51-0.29-14.78,0.11-22.37,0.57  c-5.62-0.17-11.22-0.37-16.74-0.58c-3.43-0.13-6.86-0.26-10.29-0.38c-11.73-0.41-24.43-0.6-39.96-0.6c-2.22,0-4.46,0.01-6.69,0.02  c0,0.21,0.01,0.39,0.01,0.62c0,0.57-0.05,1.09-0.08,1.63c1.76,0,3.53-0.02,5.29-0.02c19.58,0,34.68,0.3,48.95,0.98  c13.08,0.62,25.08,0.92,36.66,0.92c3.88,0,7.76-0.04,11.52-0.11c8.48-0.16,17.01-0.58,25.47-1.09c2.36-0.03,3.35-0.08,2.41-0.15  c4.71-0.29,9.4-0.6,14.03-0.91l6.81-0.46c7.7-0.51,15.98-1,24.38-1.08c1.47-0.01,2.94-0.01,4.42,0.01  c3.18,0.36,6.22,0.71,9.85,1.03c3.01,0.26,6.72-0.02,10.3-0.41c0.32,0.01,0.64,0.02,0.95,0.04c15.58,0.56,32.36,1.08,48.89,0.94  c9.38-0.07,18.91-0.4,28.12-0.71c7.12-0.24,14.48-0.49,21.73-0.62c3.35-0.06,6.74-0.11,10.15-0.15c7.19,0.41,13.57,0.81,21.55,1.17  c8.96,0.4,21.27-0.51,30.52-1.07c10.6,0.16,21.21,0.39,31.58,0.62c17.8,0.39,36.21,0.79,54.33,0.83  C504.75,147.02,506.14,146.29,506.14,145.52"></path>	<path class="st0" d="M502.47,182.04l0.16,5.2l-18.53-29.54h-3.9v35.12h3.58v-24.55l-0.22-5.09l18.53,29.65h3.96V157.7h-3.58V182.04  z M473.74,189.79h-16.37v-13.6h13.6v-3.04h-13.55v-12.41h15.34l0.38-3.04H453.8v35.12h19.95V189.79z M443.5,160.74l-19.29,29.05  v3.04h22.22l1.03-3.14l-19.4,0.11l19.4-29.05v-3.04H424.2v3.04H443.5z M414.23,182.04l0.16,5.2l-18.54-29.54h-3.9v35.12h3.58  v-24.55l-0.22-5.09l18.54,29.65h3.96V157.7h-3.58V182.04z M371.96,160.68h0.16l5.75,18.21H366.1L371.96,160.68z M357.65,192.82  h3.85l3.63-10.89h13.66l3.63,10.89h3.85L374.4,157.7h-4.88L357.65,192.82z M336.57,192.82h19.08v-3.04h-15.61l0.05-32.08h-3.58  v35.07h0.05V192.82z M330.33,160.74l0.38-3.04H313.1v35.12h3.58v-16.48h12.19v-3.03h-12.14v-12.57H330.33z M287.84,175.97v-14.96  h6.02c3.5,0,5.92,0.45,7.24,1.36c1.32,0.9,1.98,2.95,1.98,6.12c0,3.18-0.52,5.23-1.57,6.15c-1.05,0.92-3.03,1.38-5.96,1.38  l-4.12-0.05H287.84z M297.65,178.95c1.08-0.11,2.26-0.37,3.52-0.79c1.26-0.42,2.28-0.99,3.04-1.71c1.77-1.73,2.66-4.46,2.66-8.18  c0-4.44-1.23-7.39-3.68-8.83c-1.23-0.69-2.5-1.15-3.82-1.38c-1.32-0.23-2.94-0.35-4.85-0.35h-10.3v35.12h3.63v-13.77h2.49  l3.25,0.05C295.21,179.11,296.57,179.06,297.65,178.95 M267.25,177.43h5.96v10.84c-1.66,1.12-3.96,1.68-6.88,1.68  c-1.77,0-3.26-0.16-4.47-0.49c-1.21-0.33-2.39-0.98-3.55-1.95c-2.31-1.95-3.47-6.05-3.47-12.3c0-5.46,0.88-9.29,2.66-11.49  c1.77-2.2,4.99-3.31,9.65-3.31c3.22,0,6.11,0.4,8.67,1.19l0.97-2.82c-1.16-0.47-2.7-0.88-4.63-1.22c-1.93-0.34-3.6-0.52-5.01-0.52  c-10.73,0-16.1,6.07-16.1,18.21c0,5.93,0.94,10.32,2.82,13.17c0.83,1.3,1.93,2.32,3.31,3.06c1.37,0.74,2.76,1.23,4.17,1.46  c1.41,0.23,3.09,0.35,5.04,0.35c3.76,0,7.15-1.08,10.19-3.25l0.05-15.23h-9.38V177.43z M240.26,182.04l0.16,5.2l-18.54-29.54h-3.9  v35.12h3.58v-24.55l-0.22-5.09l18.54,29.65h3.96V157.7h-3.58V182.04z M209.42,181.87l0.06-24.17h-3.52v24.28  c0,2.78-0.78,4.86-2.33,6.23c-1.55,1.37-3.51,2.06-5.85,2.06c-5.53,0-8.35-2.84-8.46-8.51V157.7h-3.63v24.06  c0,3.03,0.6,5.51,1.79,7.42c0.47,0.79,1.09,1.48,1.87,2.06c0.78,0.58,1.47,1,2.09,1.27c0.61,0.27,1.37,0.47,2.28,0.6  c0.9,0.13,1.57,0.2,2.01,0.22c0.43,0.02,0.87,0.03,1.3,0.03h0.76C205.53,193.36,209.42,189.53,209.42,181.87 M173.59,188.59  c-0.11,5.38-2.57,8.56-7.37,9.54l0.7,2.06c3.11-0.07,5.58-1.1,7.43-3.09c1.84-1.99,2.78-4.82,2.82-8.51V157.7h-3.58V188.59z   M164.98,174.23h-20.65v3.2h20.65V174.23z M131.16,162.63c0.87,0.72,1.54,1.72,2.01,2.98c0.79,2.13,1.19,5.26,1.19,9.38  c0,5.31-0.81,9.14-2.44,11.49c-1.63,2.35-4.14,3.52-7.53,3.52c-1.7,0-3.09-0.11-4.17-0.33c-2.68-0.47-4.52-1.7-5.53-3.69  c-1.23-2.38-1.84-6.03-1.84-10.95c0-5.2,0.8-8.95,2.41-11.25c1.61-2.29,4.06-3.44,7.34-3.44  C126.5,160.36,129.35,161.11,131.16,162.63 M113.98,160.79c-1.48,1.3-2.67,3.18-3.58,5.64c-0.9,2.46-1.36,5.19-1.36,8.21  c0,3.02,0.14,5.54,0.43,7.56c0.54,3.5,1.73,6.25,3.58,8.24c1.81,1.92,5.33,2.87,10.57,2.87c3.83,0,7.1-1.21,9.81-3.63  c1.48-1.3,2.64-3.2,3.47-5.69c0.83-2.49,1.25-5.49,1.25-9c0-6.94-1.06-11.67-3.17-14.2c-2.11-2.53-5.9-3.79-11.35-3.79  C120.08,157,116.87,158.26,113.98,160.79 M98.26,192.82h3.58V157.7h-3.58V192.82z M82.54,161.33c0.76,0.15,1.31,0.34,1.65,0.6  c0.34,0.25,0.71,0.71,1.11,1.36c0.4,0.65,0.6,2.08,0.6,4.28c0,3.9-0.89,5.85-2.66,5.85H73.17v-12.41h4.33  C79.78,161.01,81.46,161.11,82.54,161.33 M73.17,176.45h8.94c3.61,0,5.42,2.29,5.42,6.88c0,2.75-0.51,4.48-1.52,5.2  c-1.01,0.72-2.8,1.08-5.37,1.08l-7.48-0.05V176.45z M88.32,190.87c1.97-1.34,2.95-3.71,2.95-7.13c0-3.42-0.49-5.7-1.46-6.86  c-0.54-0.58-1.01-1-1.41-1.27c-0.4-0.27-0.96-0.55-1.68-0.84c1.92-1.26,2.87-3.62,2.87-7.07c0-3.45-0.71-5.97-2.11-7.56  c-0.62-0.69-1.46-1.22-2.52-1.6c-1.07-0.38-2.1-0.61-3.09-0.71c-0.99-0.09-2.25-0.13-3.77-0.13h-8.51v35.12h3.58l5.58,0.05  C83.16,192.87,86.35,192.21,88.32,190.87"></path>	<path class="st1" d="M499,96.7c0.62,1.17,0.96,3.15,1.01,5.95c0,0.73-0.03,1.5-0.08,2.33c-0.05,0.83-0.15,1.61-0.31,2.33  c-0.67,0.21-1.46,0.36-2.37,0.47c-0.91,0.1-1.84,0.19-2.8,0.27c-0.96,0.08-1.91,0.12-2.84,0.12h-2.49c0.1-2.64,0.35-4.81,0.74-6.49  s0.88-3.03,1.48-4.04c0.59-1.01,1.26-1.71,1.98-2.1c0.72-0.39,1.48-0.58,2.25-0.58C497.23,94.95,498.37,95.53,499,96.7   M491.22,90.17c-1.66,0.49-3.12,1.52-4.39,3.07c-1.27,1.56-2.31,3.8-3.11,6.73c-0.8,2.93-1.21,6.83-1.21,11.7  c0,3.78,0.31,6.87,0.93,9.25c0.62,2.39,1.48,4.24,2.57,5.56c1.09,1.32,2.4,2.22,3.93,2.68s3.2,0.7,5.02,0.7  c1.45,0,2.83-0.1,4.12-0.31c1.29-0.21,2.44-0.5,3.42-0.89c0.98-0.39,1.76-0.84,2.33-1.36c0.57-0.52,0.86-1.09,0.86-1.71  s-0.04-1.35-0.12-2.18c-0.08-0.83-0.22-1.53-0.43-2.1c-1.35,0.73-2.77,1.31-4.28,1.75c-1.5,0.44-3.03,0.66-4.59,0.66  c-1.19,0-2.23-0.16-3.11-0.47c-0.88-0.31-1.61-0.86-2.18-1.63c-0.57-0.78-1.02-1.84-1.36-3.19c-0.34-1.35-0.53-3.06-0.58-5.13  c0.93,0,2.05-0.01,3.34-0.04c1.29-0.03,2.68-0.09,4.16-0.19c1.48-0.1,2.97-0.23,4.47-0.39c1.5-0.16,2.93-0.36,4.28-0.62  c0.31-1.4,0.53-3.01,0.66-4.82c0.13-1.81,0.19-3.58,0.19-5.29c0-8.35-3.29-12.52-9.88-12.52  C494.56,89.43,492.88,89.67,491.22,90.17 M475.74,71.93c-1.25,0-2.28,0.01-3.11,0.04c-0.83,0.03-1.48,0.13-1.94,0.31  c-0.47,0.18-0.79,0.47-0.97,0.86c-0.18,0.39-0.27,0.95-0.27,1.67v54.28h3.62c0.86,0,1.48-0.04,1.87-0.12  c0.39-0.08,0.62-0.21,0.7-0.39c0.08-0.18,0.12-0.43,0.12-0.74V71.93z M455.91,96.7c0.62,1.17,0.96,3.15,1.01,5.95  c0,0.73-0.03,1.5-0.08,2.33c-0.05,0.83-0.15,1.61-0.31,2.33c-0.67,0.21-1.46,0.36-2.37,0.47c-0.91,0.1-1.84,0.19-2.8,0.27  c-0.96,0.08-1.91,0.12-2.84,0.12h-2.49c0.1-2.64,0.35-4.81,0.74-6.49c0.39-1.68,0.88-3.03,1.48-4.04c0.59-1.01,1.26-1.71,1.98-2.1  c0.72-0.39,1.48-0.58,2.25-0.58C454.15,94.95,455.29,95.53,455.91,96.7 M448.14,90.17c-1.66,0.49-3.12,1.52-4.39,3.07  c-1.27,1.56-2.31,3.8-3.11,6.73c-0.8,2.93-1.21,6.83-1.21,11.7c0,3.78,0.31,6.87,0.93,9.25c0.62,2.39,1.48,4.24,2.57,5.56  c1.09,1.32,2.4,2.22,3.93,2.68s3.2,0.7,5.02,0.7c1.45,0,2.83-0.1,4.12-0.31c1.29-0.21,2.44-0.5,3.42-0.89  c0.99-0.39,1.76-0.84,2.33-1.36c0.57-0.52,0.86-1.09,0.86-1.71s-0.04-1.35-0.12-2.18c-0.08-0.83-0.22-1.53-0.43-2.1  c-1.35,0.73-2.77,1.31-4.28,1.75c-1.5,0.44-3.03,0.66-4.59,0.66c-1.19,0-2.23-0.16-3.11-0.47c-0.88-0.31-1.61-0.86-2.18-1.63  c-0.57-0.78-1.02-1.84-1.36-3.19c-0.34-1.35-0.53-3.06-0.58-5.13c0.93,0,2.05-0.01,3.34-0.04c1.29-0.03,2.68-0.09,4.16-0.19  c1.48-0.1,2.97-0.23,4.47-0.39c1.5-0.16,2.93-0.36,4.28-0.62c0.31-1.4,0.53-3.01,0.66-4.82c0.13-1.81,0.19-3.58,0.19-5.29  c0-8.35-3.29-12.52-9.88-12.52C451.48,89.43,449.8,89.67,448.14,90.17 M410.19,129.09h3.62c0.86,0,1.48-0.04,1.87-0.12  c0.39-0.08,0.62-0.21,0.7-0.39c0.08-0.18,0.12-0.43,0.12-0.74V97.44c0.93-0.83,1.92-1.4,2.96-1.71c1.04-0.31,2-0.47,2.88-0.47  c0.93,0,1.7,0.17,2.29,0.51c0.59,0.34,1.05,0.78,1.36,1.32c0.31,0.54,0.52,1.2,0.62,1.98c0.1,0.78,0.16,1.58,0.16,2.41v27.61h3.66  c0.88,0,1.53-0.04,1.94-0.12c0.41-0.08,0.67-0.21,0.78-0.39c0.1-0.18,0.16-0.43,0.16-0.74V99.69c0-1.61-0.11-3.06-0.31-4.35  c-0.21-1.3-0.61-2.37-1.21-3.23c-0.6-0.86-1.43-1.52-2.49-1.98c-1.06-0.47-2.42-0.7-4.08-0.7c-1.5,0-3.03,0.25-4.59,0.74  c-1.56,0.49-2.93,1.26-4.12,2.29V71.93c-1.3,0-2.36,0.01-3.19,0.04c-0.83,0.03-1.48,0.13-1.94,0.31c-0.47,0.18-0.78,0.47-0.93,0.86  c-0.16,0.39-0.23,0.95-0.23,1.67V129.09z M389.97,118.28c0,1.76,0.08,3.36,0.23,4.78c0.16,1.43,0.49,2.64,1.01,3.66  c0.52,1.01,1.27,1.79,2.26,2.33c0.98,0.54,2.31,0.82,3.97,0.82c0.78,0,1.56-0.05,2.33-0.15c0.78-0.11,1.49-0.29,2.14-0.54  c0.65-0.26,1.18-0.61,1.59-1.05c0.42-0.44,0.62-1.02,0.62-1.75c0-0.62-0.05-1.19-0.16-1.71c-0.1-0.52-0.21-0.98-0.31-1.4  c-0.78,0.42-1.5,0.71-2.18,0.89c-0.67,0.18-1.45,0.27-2.33,0.27c-0.73,0-1.27-0.17-1.63-0.51c-0.36-0.34-0.63-0.78-0.82-1.32  c-0.18-0.54-0.29-1.19-0.31-1.94c-0.03-0.75-0.04-1.54-0.04-2.37V95.65h6.69c0.31,0,0.54-0.05,0.7-0.16  c0.15-0.1,0.27-0.35,0.35-0.74c0.08-0.39,0.13-0.93,0.16-1.63c0.03-0.7,0.04-1.67,0.04-2.92h-7.93v-14c-1.3,0-2.36,0.01-3.19,0.04  s-1.48,0.1-1.94,0.23c-0.47,0.13-0.79,0.35-0.97,0.66c-0.18,0.31-0.27,0.73-0.27,1.24V90.2h-3.89c-0.31,0-0.57,0.05-0.78,0.15  c-0.21,0.1-0.35,0.35-0.43,0.74c-0.08,0.39-0.13,0.95-0.16,1.67c-0.03,0.73-0.04,1.68-0.04,2.88h5.29V118.28z M365.55,129.09h3.66  c0.88,0,1.52-0.04,1.91-0.12c0.39-0.08,0.62-0.21,0.7-0.39c0.08-0.18,0.12-0.43,0.12-0.74l0.08-30.56  c0.73-0.62,1.54-1.08,2.45-1.36c0.91-0.28,1.8-0.43,2.68-0.43c1.29,0,2.54,0.31,3.73,0.93c0.26-0.67,0.44-1.36,0.54-2.06  c0.1-0.7,0.16-1.26,0.16-1.67c0-1.04-0.42-1.84-1.24-2.41c-0.83-0.57-2.23-0.86-4.2-0.86c-1.92,0-3.79,0.32-5.6,0.97  c-1.82,0.65-3.47,1.49-4.98,2.53V129.09z M350.35,82.31c0.54,0.7,1.52,1.05,2.92,1.05c1.25,0,2.2-0.38,2.88-1.13  c0.67-0.75,1.01-1.7,1.01-2.84c0-1.19-0.3-2.15-0.9-2.88c-0.6-0.73-1.59-1.09-2.99-1.09c-1.19,0-2.11,0.4-2.76,1.2  c-0.65,0.81-0.97,1.73-0.97,2.76C349.53,80.64,349.81,81.61,350.35,82.31 M339.27,82.31c0.57,0.7,1.56,1.05,2.96,1.05  c1.19,0,2.14-0.38,2.84-1.13c0.7-0.75,1.05-1.7,1.05-2.84c0-1.19-0.3-2.15-0.89-2.88c-0.6-0.73-1.59-1.09-2.99-1.09  c-1.19,0-2.13,0.4-2.8,1.2c-0.67,0.81-1.01,1.73-1.01,2.76C338.41,80.64,338.7,81.61,339.27,82.31 M352.02,114.08  c0,1.19-0.01,2.36-0.04,3.5c-0.03,1.14-0.05,2.22-0.08,3.23c-0.03,1.01-0.07,1.83-0.12,2.45c-0.36,0.36-0.92,0.67-1.67,0.93  c-0.75,0.26-1.57,0.39-2.45,0.39c-0.78,0-1.48-0.08-2.1-0.23c-0.62-0.16-1.16-0.48-1.6-0.97c-0.44-0.49-0.78-1.18-1.01-2.06  c-0.23-0.88-0.35-2.02-0.35-3.42c0-1.71,0.16-3.07,0.47-4.08c0.31-1.01,0.72-1.8,1.24-2.37c0.52-0.57,1.13-0.95,1.83-1.13  c0.7-0.18,1.44-0.27,2.22-0.27c0.57,0,1.19,0.05,1.87,0.16c0.67,0.1,1.27,0.29,1.79,0.54V114.08z M336.24,95.38  c0.1,0.65,0.34,1.28,0.7,1.9c1.14-0.47,2.65-0.87,4.51-1.21c1.87-0.34,3.78-0.51,5.75-0.51c1.55,0,2.75,0.31,3.58,0.93  c0.83,0.62,1.24,1.84,1.24,3.65v6.14c-0.78-0.41-1.7-0.69-2.76-0.82c-1.06-0.13-2.04-0.2-2.92-0.2c-1.3,0-2.57,0.16-3.81,0.47  c-1.25,0.31-2.35,0.93-3.3,1.87c-0.96,0.93-1.74,2.23-2.33,3.89c-0.6,1.66-0.9,3.84-0.9,6.53c0,2.64,0.31,4.76,0.93,6.34  c0.62,1.58,1.45,2.79,2.49,3.62c1.04,0.83,2.23,1.35,3.58,1.56c1.35,0.21,2.72,0.31,4.12,0.31c2.54,0,4.72-0.29,6.53-0.85  c1.81-0.57,3.24-1.17,4.28-1.79c0.1-1.45,0.18-3.11,0.23-4.98c0.05-1.87,0.1-3.85,0.16-5.95c0.05-2.1,0.08-4.28,0.08-6.53v-6.73  v-4.12c0-3.52-0.77-5.99-2.29-7.39c-1.53-1.4-3.98-2.1-7.35-2.1c-2.96,0-5.5,0.25-7.62,0.74c-2.13,0.49-3.53,0.95-4.2,1.36  c-0.31,0.26-0.53,0.58-0.66,0.97c-0.13,0.39-0.19,0.79-0.19,1.21C336.08,94.17,336.13,94.73,336.24,95.38 M313.53,102.34h3.58  c1.04,0,1.99,0.08,2.88,0.23c0.88,0.16,1.63,0.53,2.25,1.13c0.62,0.6,1.11,1.48,1.48,2.64c0.36,1.17,0.54,2.76,0.54,4.78  c0,2.23-0.19,4.12-0.58,5.68c-0.39,1.55-0.92,2.84-1.59,3.85c-0.67,1.01-1.44,1.75-2.29,2.22c-0.86,0.47-1.78,0.7-2.76,0.7h-3.5  V102.34z M313.53,80.25h3.73c0.73,0,1.44,0.1,2.14,0.31c0.7,0.21,1.32,0.6,1.87,1.17c0.54,0.57,0.97,1.35,1.28,2.33  c0.31,0.99,0.47,2.28,0.47,3.89c0,3.11-0.53,5.38-1.59,6.81c-1.06,1.43-2.42,2.14-4.08,2.14h-3.81V80.25z M307.07,129.09h9.8  c2.02,0,3.93-0.35,5.72-1.05c1.79-0.7,3.36-1.8,4.71-3.3c1.35-1.5,2.41-3.42,3.19-5.75c0.78-2.33,1.17-5.13,1.17-8.4  c0-2.33-0.31-4.22-0.93-5.68c-0.62-1.45-1.4-2.59-2.33-3.42c-0.93-0.83-1.93-1.4-2.99-1.71c-1.06-0.31-2.04-0.49-2.92-0.54  c0.83-0.1,1.68-0.42,2.57-0.93c0.88-0.52,1.68-1.28,2.41-2.29c0.72-1.01,1.32-2.28,1.79-3.81c0.47-1.53,0.7-3.36,0.7-5.48  c0-2.49-0.39-4.52-1.17-6.11c-0.78-1.58-1.79-2.81-3.03-3.69c-1.24-0.88-2.64-1.48-4.2-1.79c-1.55-0.31-3.11-0.47-4.67-0.47h-7.7  c-0.83,0-1.39,0.13-1.67,0.39c-0.29,0.26-0.43,0.62-0.43,1.09V129.09z M256.99,129.09h3.58c0.83,0,1.45-0.04,1.87-0.12  c0.41-0.08,0.66-0.21,0.74-0.39c0.08-0.18,0.12-0.43,0.12-0.74v-31.5c0.88-0.47,1.85-0.82,2.92-1.05s2.01-0.35,2.84-0.35  c1.97,0,3.24,0.51,3.81,1.52c0.57,1.01,0.86,2.76,0.86,5.25v27.37h3.73c0.88,0,1.53-0.04,1.95-0.12c0.41-0.08,0.66-0.21,0.74-0.39  c0.08-0.18,0.12-0.43,0.12-0.74v-28c0-3.78-0.8-6.47-2.41-8.05c-1.61-1.58-4.46-2.37-8.55-2.37c-1.04,0-2.11,0.08-3.23,0.23  c-1.12,0.16-2.22,0.35-3.3,0.58c-1.09,0.23-2.13,0.52-3.11,0.86c-0.99,0.34-1.87,0.66-2.64,0.97V129.09z M243.46,114.08  c0,1.19-0.01,2.36-0.04,3.5c-0.03,1.14-0.05,2.22-0.08,3.23c-0.03,1.01-0.07,1.83-0.12,2.45c-0.36,0.36-0.92,0.67-1.67,0.93  c-0.75,0.26-1.57,0.39-2.45,0.39c-0.78,0-1.48-0.08-2.1-0.23c-0.62-0.16-1.15-0.48-1.59-0.97c-0.44-0.49-0.78-1.18-1.01-2.06  c-0.23-0.88-0.35-2.02-0.35-3.42c0-1.71,0.16-3.07,0.47-4.08c0.31-1.01,0.73-1.8,1.24-2.37c0.52-0.57,1.13-0.95,1.83-1.13  c0.7-0.18,1.44-0.27,2.22-0.27c0.57,0,1.19,0.05,1.87,0.16c0.67,0.1,1.27,0.29,1.79,0.54V114.08z M227.68,95.38  c0.1,0.65,0.34,1.28,0.7,1.9c1.14-0.47,2.64-0.87,4.51-1.21c1.87-0.34,3.78-0.51,5.75-0.51c1.55,0,2.75,0.31,3.58,0.93  c0.83,0.62,1.24,1.84,1.24,3.65v6.14c-0.78-0.41-1.7-0.69-2.76-0.82c-1.06-0.13-2.04-0.2-2.92-0.2c-1.3,0-2.57,0.16-3.81,0.47  c-1.25,0.31-2.35,0.93-3.31,1.87c-0.96,0.93-1.74,2.23-2.33,3.89c-0.6,1.66-0.89,3.84-0.89,6.53c0,2.64,0.31,4.76,0.93,6.34  c0.62,1.58,1.45,2.79,2.49,3.62c1.04,0.83,2.23,1.35,3.58,1.56c1.35,0.21,2.72,0.31,4.12,0.31c2.54,0,4.72-0.29,6.53-0.85  c1.81-0.57,3.24-1.17,4.28-1.79c0.1-1.45,0.18-3.11,0.23-4.98c0.05-1.87,0.1-3.85,0.16-5.95c0.05-2.1,0.08-4.28,0.08-6.53v-6.73  v-4.12c0-3.52-0.76-5.99-2.29-7.39c-1.53-1.4-3.98-2.1-7.35-2.1c-2.95,0-5.5,0.25-7.62,0.74c-2.13,0.49-3.53,0.95-4.2,1.36  c-0.31,0.26-0.53,0.58-0.66,0.97c-0.13,0.39-0.19,0.79-0.19,1.21C227.52,94.17,227.57,94.73,227.68,95.38 M215.27,81.65  c0.54,0.73,1.33,1.09,2.37,1.09c1.19,0,2.09-0.44,2.68-1.32c0.59-0.88,0.89-2.12,0.89-3.73c0.05-1.66-0.16-2.83-0.62-3.5  c-0.47-0.67-1.3-1.01-2.49-1.01c-1.24,0-2.15,0.43-2.72,1.28c-0.57,0.85-0.88,1.98-0.93,3.38  C214.46,79.65,214.73,80.92,215.27,81.65 M220.83,90.2c-1.3,0-2.36,0.01-3.19,0.04c-0.83,0.03-1.49,0.13-1.98,0.31  c-0.49,0.18-0.83,0.47-1.01,0.86c-0.18,0.39-0.27,0.95-0.27,1.67v36.01h3.69c0.86,0,1.49-0.04,1.91-0.12  c0.41-0.08,0.66-0.21,0.74-0.39c0.08-0.18,0.12-0.43,0.12-0.74V90.2z M194.08,118.28c0,1.76,0.08,3.36,0.23,4.78  c0.16,1.43,0.49,2.64,1.01,3.66c0.52,1.01,1.27,1.79,2.25,2.33c0.98,0.54,2.31,0.82,3.97,0.82c0.78,0,1.56-0.05,2.33-0.15  c0.78-0.11,1.49-0.29,2.14-0.54c0.65-0.26,1.18-0.61,1.59-1.05c0.41-0.44,0.62-1.02,0.62-1.75c0-0.62-0.05-1.19-0.15-1.71  c-0.11-0.52-0.21-0.98-0.31-1.4c-0.78,0.42-1.5,0.71-2.18,0.89c-0.67,0.18-1.45,0.27-2.33,0.27c-0.73,0-1.27-0.17-1.63-0.51  c-0.36-0.34-0.63-0.78-0.82-1.32c-0.18-0.54-0.29-1.19-0.31-1.94c-0.03-0.75-0.04-1.54-0.04-2.37V95.65h6.69  c0.31,0,0.55-0.05,0.7-0.16c0.16-0.1,0.27-0.35,0.35-0.74c0.08-0.39,0.13-0.93,0.16-1.63c0.02-0.7,0.04-1.67,0.04-2.92h-7.93v-14  c-1.3,0-2.36,0.01-3.19,0.04c-0.83,0.03-1.48,0.1-1.94,0.23c-0.47,0.13-0.79,0.35-0.97,0.66c-0.18,0.31-0.27,0.73-0.27,1.24V90.2  h-3.89c-0.31,0-0.57,0.05-0.78,0.15c-0.21,0.1-0.35,0.35-0.43,0.74c-0.08,0.39-0.13,0.95-0.16,1.67c-0.03,0.73-0.04,1.68-0.04,2.88  h5.29V118.28z M165.27,91.99c-2.05,1.71-3.07,3.91-3.07,6.61c0,1.3,0.3,2.63,0.89,4c0.59,1.38,1.77,2.79,3.54,4.24l7.54,6.45  c1.19,1.04,2.01,2.05,2.45,3.03c0.44,0.99,0.66,2,0.66,3.03c0,1.56-0.56,2.75-1.67,3.58c-1.12,0.83-2.66,1.24-4.63,1.24  c-2.95,0-5.55-0.65-7.78-1.94c-0.42,0.73-0.7,1.4-0.86,2.02c-0.15,0.62-0.23,1.17-0.23,1.63c0,1.35,0.88,2.35,2.64,2.99  c1.76,0.65,4.04,0.97,6.84,0.97c3.99,0,7.13-0.93,9.41-2.8c2.28-1.87,3.42-4.54,3.42-8.01c0-1.97-0.35-3.67-1.05-5.09  c-0.7-1.43-1.88-2.97-3.54-4.63l-7.23-5.83c-1.35-1.09-2.2-1.98-2.57-2.68c-0.36-0.7-0.54-1.41-0.54-2.14  c0-1.19,0.57-2.11,1.71-2.76c1.14-0.65,2.62-0.97,4.43-0.97c2.85,0,5.39,0.67,7.62,2.02c0.93-1.04,1.4-2.1,1.4-3.19  c0-0.36-0.13-0.8-0.39-1.32c-0.26-0.52-0.75-1-1.48-1.44c-0.73-0.44-1.73-0.82-2.99-1.13c-1.27-0.31-2.92-0.47-4.94-0.47  C170.52,89.43,167.32,90.28,165.27,91.99 M149.88,81.65c0.54,0.73,1.33,1.09,2.37,1.09c1.19,0,2.09-0.44,2.68-1.32  c0.6-0.88,0.9-2.12,0.9-3.73c0.05-1.66-0.16-2.83-0.62-3.5c-0.47-0.67-1.3-1.01-2.49-1.01c-1.24,0-2.15,0.43-2.72,1.28  c-0.57,0.85-0.88,1.98-0.93,3.38C149.06,79.65,149.33,80.92,149.88,81.65 M155.44,90.2c-1.3,0-2.36,0.01-3.19,0.04  c-0.83,0.03-1.49,0.13-1.98,0.31c-0.49,0.18-0.83,0.47-1.01,0.86c-0.18,0.39-0.27,0.95-0.27,1.67v36.01h3.69  c0.86,0,1.49-0.04,1.91-0.12c0.41-0.08,0.66-0.21,0.74-0.39c0.08-0.18,0.12-0.43,0.12-0.74V90.2z M127.67,129.09h3.66  c0.88,0,1.52-0.04,1.9-0.12c0.39-0.08,0.62-0.21,0.7-0.39c0.08-0.18,0.12-0.43,0.12-0.74l0.08-30.56c0.73-0.62,1.54-1.08,2.45-1.36  c0.91-0.28,1.8-0.43,2.68-0.43c1.29,0,2.54,0.31,3.73,0.93c0.26-0.67,0.44-1.36,0.54-2.06c0.1-0.7,0.15-1.26,0.15-1.67  c0-1.04-0.42-1.84-1.24-2.41c-0.83-0.57-2.23-0.86-4.2-0.86c-1.92,0-3.79,0.32-5.6,0.97c-1.82,0.65-3.47,1.49-4.98,2.53V129.09z   M97.35,129.09h3.62c0.86,0,1.48-0.04,1.87-0.12c0.39-0.08,0.62-0.21,0.7-0.39c0.08-0.18,0.12-0.43,0.12-0.74V97.44  c0.93-0.83,1.92-1.4,2.96-1.71c1.04-0.31,2-0.47,2.88-0.47c0.93,0,1.7,0.17,2.29,0.51c0.6,0.34,1.05,0.78,1.36,1.32  c0.31,0.54,0.52,1.2,0.62,1.98c0.1,0.78,0.16,1.58,0.16,2.41v27.61h3.65c0.88,0,1.53-0.04,1.94-0.12c0.41-0.08,0.67-0.21,0.78-0.39  c0.1-0.18,0.15-0.43,0.15-0.74V99.69c0-1.61-0.1-3.06-0.31-4.35c-0.21-1.3-0.61-2.37-1.2-3.23c-0.6-0.86-1.43-1.52-2.49-1.98  c-1.06-0.47-2.42-0.7-4.08-0.7c-1.5,0-3.03,0.25-4.59,0.74c-1.56,0.49-2.93,1.26-4.12,2.29V71.93c-1.3,0-2.36,0.01-3.19,0.04  c-0.83,0.03-1.48,0.13-1.94,0.31c-0.47,0.18-0.78,0.47-0.93,0.86c-0.16,0.39-0.23,0.95-0.23,1.67V129.09z M79.15,74.77  c-1.81,0.6-3.46,1.97-4.94,4.12c-1.48,2.15-2.7,5.24-3.65,9.25c-0.96,4.02-1.44,9.34-1.44,15.98c0,5.65,0.32,10.19,0.97,13.61  c0.65,3.42,1.56,6.04,2.72,7.85c1.17,1.82,2.53,3.02,4.08,3.62c1.56,0.6,3.27,0.82,5.13,0.66c2.9,0,5.24-0.56,7-1.67  c1.76-1.11,2.64-2.42,2.64-3.93c0-0.67-0.09-1.35-0.27-2.02c-0.18-0.67-0.4-1.27-0.66-1.79c-0.73,0.57-1.72,1.12-2.99,1.63  c-1.27,0.52-2.66,0.78-4.16,0.78c-1.14,0-2.19-0.22-3.15-0.66c-0.96-0.44-1.78-1.37-2.45-2.8c-0.67-1.42-1.21-3.39-1.59-5.91  c-0.39-2.51-0.58-5.74-0.58-9.68c0-5.13,0.28-9.27,0.86-12.4c0.57-3.14,1.32-5.53,2.26-7.19c0.93-1.66,1.98-2.77,3.15-3.34  c1.17-0.57,2.37-0.86,3.62-0.86c1.19,0,2.23,0.23,3.11,0.7c0.88,0.47,1.53,0.88,1.94,1.24c0.26-0.47,0.49-1.04,0.7-1.71  c0.21-0.67,0.31-1.37,0.31-2.1c0-0.52-0.12-1.02-0.35-1.52c-0.23-0.49-0.62-0.94-1.17-1.36c-0.54-0.41-1.28-0.75-2.22-1.01  c-0.93-0.26-2.13-0.39-3.58-0.39C82.73,73.87,80.96,74.17,79.15,74.77"></path>	<path class="st0" d="M505.58,214.32c0.24,0.01,0.44-0.06,0.61-0.21c0.17-0.15,0.26-0.34,0.28-0.58c0.02-0.24-0.06-0.44-0.23-0.61  c-0.74-0.83-1.49-1.26-2.27-1.28c-0.78-0.04-1.48,0.3-2.13,1.02c-0.95,1.08-1.67,2.9-2.18,5.47c-0.47,2.4-0.63,4.82-0.48,7.26  c0.17,2.72,0.69,4.78,1.56,6.18c0.34,0.53,0.77,0.92,1.28,1.16c0.4,0.19,0.85,0.28,1.36,0.28c0.83,0,1.53-0.36,2.1-1.08  c0.43-0.55,0.77-1.31,1.02-2.3c0.42-1.62,0.58-3.75,0.51-6.38v-0.14c0-0.02-0.01-0.07-0.03-0.14c-0.02-0.08-0.03-0.12-0.03-0.14  c-0.06-0.25-0.2-0.43-0.42-0.57c-0.59-0.34-1.31-0.5-2.18-0.48h-0.65c-0.06-0.02-0.09-0.03-0.11-0.03c-0.45-0.02-0.76-0.02-0.91,0  c-0.25,0.02-0.44,0.12-0.59,0.3c-0.15,0.18-0.22,0.39-0.2,0.62c0.02,0.24,0.12,0.43,0.3,0.58c0.18,0.15,0.39,0.22,0.64,0.2  c0.08-0.02,0.3-0.02,0.68,0c0.04,0,0.08,0.01,0.11,0.03h0.77c0.4,0,0.72,0.04,0.96,0.11c0.04,2.34-0.12,4.21-0.48,5.61  c-0.19,0.76-0.44,1.31-0.74,1.67c-0.23,0.28-0.47,0.42-0.74,0.42c-0.51,0-0.91-0.22-1.19-0.65c-0.72-1.15-1.15-2.94-1.3-5.36  c-0.13-2.31,0.02-4.59,0.45-6.85s1.03-3.81,1.79-4.66c0.28-0.32,0.55-0.47,0.79-0.45c0.3,0,0.65,0.24,1.05,0.71  C505.14,214.22,505.34,214.31,505.58,214.32 M496.07,212.76c-0.17-0.16-0.37-0.24-0.61-0.24c-0.24,0-0.43,0.08-0.59,0.24  c-0.16,0.16-0.24,0.36-0.24,0.61c0,0.61-0.05,2.22-0.14,4.85c-0.06,1.62-0.09,2.97-0.11,4.03c-0.09,4.86,0.11,8.06,0.62,9.61  c0.08,0.23,0.22,0.39,0.42,0.5c0.21,0.1,0.42,0.12,0.64,0.04c0.22-0.08,0.38-0.22,0.5-0.43c0.11-0.21,0.13-0.41,0.06-0.62  c-0.45-1.38-0.63-4.4-0.54-9.07c0.02-1.04,0.06-2.37,0.11-4c0.09-2.65,0.14-4.28,0.14-4.9  C496.32,213.12,496.24,212.92,496.07,212.76 M488.68,214.08c0.24,0.02,0.44-0.05,0.62-0.21c0.18-0.16,0.28-0.35,0.3-0.58  c0.02-0.23-0.06-0.43-0.23-0.62c-0.74-0.85-1.57-1.28-2.49-1.28c-0.89-0.02-1.66,0.33-2.32,1.05c-0.64,0.68-1.06,1.54-1.25,2.59  c-0.19,1.05-0.11,2.13,0.23,3.25c0.17,0.53,0.49,1.09,0.96,1.67c0.25,0.3,0.58,0.66,1.02,1.08c0.02,0.02,0.18,0.17,0.48,0.47  c0.3,0.29,0.5,0.49,0.6,0.58c0.98,0.96,1.67,1.84,2.07,2.64c0.55,1.06,0.73,2.21,0.54,3.46c-0.11,0.68-0.25,1.2-0.42,1.56  c-0.25,0.49-0.61,0.84-1.1,1.05c-0.78,0.34-1.54,0.26-2.3-0.23c-0.45-0.32-0.88-0.76-1.28-1.3c-0.13-0.19-0.32-0.3-0.55-0.34  c-0.24-0.04-0.45,0.01-0.64,0.14c-0.19,0.13-0.3,0.31-0.34,0.54c-0.04,0.23,0.01,0.44,0.14,0.65c0.19,0.26,0.39,0.51,0.6,0.74  c0.36,0.4,0.74,0.73,1.13,0.99c0.57,0.36,1.14,0.59,1.73,0.68c0.74,0.11,1.46,0.01,2.18-0.31c0.89-0.38,1.54-1,1.96-1.87  c0.25-0.49,0.43-1.17,0.57-2.04c0.25-1.61,0.01-3.11-0.71-4.51c-0.47-0.93-1.27-1.95-2.38-3.06c-0.09-0.09-0.3-0.29-0.61-0.58  c-0.31-0.29-0.47-0.45-0.47-0.47c-0.4-0.38-0.7-0.69-0.91-0.94c-0.34-0.42-0.56-0.78-0.65-1.11c-0.25-0.85-0.29-1.67-0.14-2.47  c0.13-0.7,0.4-1.27,0.79-1.7c0.32-0.36,0.67-0.53,1.05-0.51c0.42,0,0.83,0.24,1.25,0.71C488.25,213.97,488.45,214.06,488.68,214.08   M478.42,214.08c0.24,0.02,0.44-0.05,0.62-0.21c0.18-0.16,0.28-0.35,0.3-0.58c0.02-0.23-0.06-0.43-0.23-0.62  c-0.74-0.85-1.57-1.28-2.49-1.28c-0.89-0.02-1.66,0.33-2.33,1.05c-0.64,0.68-1.06,1.54-1.25,2.59c-0.19,1.05-0.11,2.13,0.23,3.25  c0.17,0.53,0.49,1.09,0.96,1.67c0.25,0.3,0.59,0.66,1.02,1.08c0.02,0.02,0.18,0.17,0.48,0.47c0.3,0.29,0.5,0.49,0.59,0.58  c0.98,0.96,1.67,1.84,2.07,2.64c0.55,1.06,0.73,2.21,0.54,3.46c-0.11,0.68-0.25,1.2-0.42,1.56c-0.25,0.49-0.61,0.84-1.11,1.05  c-0.77,0.34-1.54,0.26-2.3-0.23c-0.45-0.32-0.88-0.76-1.27-1.3c-0.13-0.19-0.32-0.3-0.55-0.34c-0.24-0.04-0.45,0.01-0.64,0.14  c-0.19,0.13-0.3,0.31-0.34,0.54c-0.04,0.23,0.01,0.44,0.14,0.65c0.19,0.26,0.39,0.51,0.6,0.74c0.36,0.4,0.74,0.73,1.13,0.99  c0.57,0.36,1.14,0.59,1.73,0.68c0.74,0.11,1.46,0.01,2.18-0.31c0.89-0.38,1.54-1,1.96-1.87c0.24-0.49,0.43-1.17,0.57-2.04  c0.25-1.61,0.01-3.11-0.71-4.51c-0.47-0.93-1.27-1.95-2.38-3.06c-0.09-0.09-0.3-0.29-0.61-0.58c-0.31-0.29-0.47-0.45-0.47-0.47  c-0.4-0.38-0.7-0.69-0.91-0.94c-0.34-0.42-0.56-0.78-0.65-1.11c-0.25-0.85-0.29-1.67-0.14-2.47c0.13-0.7,0.4-1.27,0.79-1.7  c0.32-0.36,0.67-0.53,1.05-0.51c0.42,0,0.83,0.24,1.25,0.71C477.99,213.97,478.19,214.06,478.42,214.08 M466.19,207.87  c-0.23,0.04-0.41,0.16-0.54,0.36c-0.13,0.2-0.18,0.41-0.14,0.64c0.07,0.36,0.21,0.64,0.4,0.85c0.15,0.15,0.32,0.25,0.51,0.28  c0.38,0.08,0.67-0.04,0.88-0.34c0.09-0.13,0.15-0.28,0.17-0.45c0.02-0.08,0.03-0.17,0.03-0.28c0-0.38-0.17-0.64-0.51-0.79  C466.78,207.9,466.51,207.82,466.19,207.87 M463.21,207.98c-0.23,0.04-0.41,0.15-0.54,0.34c-0.13,0.19-0.18,0.4-0.14,0.62  c0.06,0.38,0.19,0.67,0.4,0.88c0.13,0.15,0.3,0.25,0.51,0.28c0.36,0.08,0.65-0.05,0.88-0.37c0.09-0.11,0.15-0.25,0.17-0.42  c0.02-0.09,0.03-0.19,0.03-0.28c0-0.38-0.17-0.64-0.51-0.79C463.78,208.01,463.52,207.93,463.21,207.98 M464.55,227.8  c-0.08,0.02-0.19,0.03-0.34,0.03c-0.76,0-1.31,0.01-1.67,0.03c0.08-0.28,0.15-0.6,0.23-0.94c0.17-0.62,0.37-1.4,0.59-2.32  c0.04-0.13,0.14-0.53,0.31-1.21c0.17-0.67,0.27-1.08,0.31-1.23c0.17-0.6,0.31-1.14,0.42-1.62c0.36-1.42,0.66-2.65,0.91-3.71  c0.66,3.31,1.41,6.62,2.24,9.95c0.07,0.28,0.15,0.59,0.23,0.91C467.1,227.74,466.02,227.78,464.55,227.8 M468.35,229.75  c0.19,0.7,0.33,1.3,0.43,1.81c0.04,0.23,0.15,0.41,0.34,0.55c0.19,0.14,0.4,0.19,0.64,0.14c0.24-0.05,0.42-0.17,0.55-0.35  c0.13-0.19,0.18-0.4,0.14-0.62c-0.09-0.55-0.25-1.2-0.45-1.96c-0.08-0.28-0.17-0.66-0.28-1.13c-0.26-0.91-0.43-1.52-0.51-1.84  c-1.4-5.56-2.38-10.2-2.95-13.92c0.04-0.3-0.06-0.56-0.28-0.77c-0.19-0.23-0.43-0.31-0.74-0.25c-0.23,0.04-0.41,0.15-0.55,0.33  c-0.14,0.18-0.19,0.39-0.15,0.64v0.03c-0.36,1.91-0.95,4.48-1.76,7.71c-0.13,0.47-0.27,1.02-0.43,1.64  c-0.04,0.13-0.14,0.53-0.31,1.21c-0.17,0.67-0.27,1.07-0.31,1.21c-0.23,0.93-0.42,1.71-0.59,2.35c-0.43,1.74-0.76,3.17-0.99,4.31  c-0.06,0.23-0.02,0.44,0.11,0.64c0.13,0.2,0.31,0.32,0.54,0.37c0.23,0.05,0.44,0,0.64-0.13c0.2-0.13,0.33-0.31,0.38-0.54  c0.1-0.49,0.21-1.02,0.34-1.59c0.43-0.02,1.13-0.04,2.1-0.06c0.15-0.02,0.26-0.03,0.34-0.03c1.62-0.02,2.83-0.07,3.6-0.14  c0.02-0.02,0.04-0.03,0.06-0.03C468.29,229.48,468.33,229.62,468.35,229.75 M453.39,211.56c-0.18-0.15-0.39-0.22-0.62-0.2  c-0.24,0.02-0.43,0.12-0.58,0.3c-0.15,0.18-0.22,0.38-0.2,0.61c0.06,0.79,0.11,3.95,0.17,9.47v1.73c0.02,2.65,0.04,4.5,0.06,5.56  c0.02,0.79,0.04,1.4,0.06,1.81v0.54c0.02,0.08,0.03,0.14,0.03,0.2c0.02,0.15,0.07,0.28,0.14,0.4c0.09,0.15,0.23,0.27,0.4,0.37  c0.09,0.06,0.21,0.1,0.34,0.14c0.17,0.04,0.38,0.08,0.62,0.11c0.36,0.04,0.84,0.06,1.44,0.06c0.36,0,0.78-0.01,1.25-0.03  c0.06,0,0.15-0.01,0.28-0.03h0.2h0.28c0.24,0,0.45-0.08,0.61-0.24c0.16-0.16,0.24-0.36,0.24-0.6c0-0.24-0.08-0.44-0.24-0.61  c-0.16-0.17-0.36-0.25-0.61-0.25h-0.31c-0.02,0-0.09,0-0.23,0.01c-0.13,0.01-0.22,0.01-0.25,0.01c-0.47,0.02-0.88,0.03-1.22,0.03  c-0.53,0-0.95-0.02-1.27-0.06c0-0.04-0.01-0.08-0.03-0.11c0-0.42-0.01-1.01-0.03-1.79c-0.02-1.06-0.04-2.9-0.06-5.53v-1.76  c-0.06-5.56-0.11-8.75-0.17-9.58C453.67,211.9,453.57,211.71,453.39,211.56 M440.86,211.84c-0.2,0.13-0.32,0.31-0.35,0.54  c-0.04,0.11-0.06,0.24-0.06,0.37c0.21,2.85,0.33,6.2,0.37,10.04c0.02,1.61,0.02,4.01,0,7.2v2.32c0,0.23,0.08,0.43,0.25,0.6  c0.17,0.17,0.37,0.25,0.61,0.25c0.24,0,0.43-0.08,0.6-0.25c0.16-0.17,0.24-0.37,0.24-0.6v-2.32c0.02-3.04,0.02-5.3,0-6.78  c0.66-0.26,1.22-0.36,1.67-0.28c0.4,0.06,0.75,0.26,1.05,0.62c0.3,0.36,0.57,0.89,0.79,1.59c0.19,0.55,0.37,1.29,0.54,2.21  c0.04,0.17,0.08,0.37,0.11,0.59c0.02,0.02,0.04,0.11,0.07,0.27c0.03,0.16,0.04,0.26,0.04,0.3c0.23,1.13,0.42,1.96,0.59,2.47  c0.08,0.23,0.22,0.39,0.43,0.5c0.21,0.1,0.42,0.12,0.65,0.06c0.23-0.07,0.39-0.21,0.5-0.42c0.1-0.22,0.12-0.43,0.04-0.64  c-0.15-0.47-0.33-1.23-0.54-2.27c0-0.04-0.02-0.14-0.06-0.3c-0.04-0.16-0.06-0.26-0.06-0.3c-0.04-0.23-0.08-0.42-0.11-0.57  c-0.19-1.02-0.39-1.83-0.59-2.44c-0.3-0.91-0.67-1.62-1.11-2.13c-0.28-0.36-0.6-0.64-0.96-0.85c0.34-0.34,0.62-0.74,0.85-1.19  c0.38-0.83,0.5-1.72,0.38-2.65c-0.12-0.94-0.47-1.87-1.03-2.79c-0.53-0.87-1.18-1.6-1.94-2.2c-0.77-0.59-1.54-0.96-2.34-1.09  C441.27,211.66,441.06,211.71,440.86,211.84 M444.34,215.86c0.42,0.68,0.68,1.36,0.78,2.04c0.1,0.68,0.03,1.28-0.21,1.79  c-0.25,0.49-0.59,0.87-1.05,1.13c-0.32,0.17-0.78,0.33-1.36,0.48c-0.04-2.8-0.13-5.32-0.28-7.57  C443.06,214.21,443.77,214.92,444.34,215.86 M431.61,212.61c-0.13,0.19-0.18,0.41-0.14,0.65c0.02,0.02,0.03,0.04,0.03,0.06v0.09  c-0.06,0.23-0.1,1.29-0.14,3.17c-0.04,1.76-0.08,3.75-0.11,5.98c-0.02,2.38-0.02,4.36,0,5.92c0,0.85,0.01,1.52,0.03,2.01  c0,0.26,0.01,0.47,0.03,0.62c0.02,0.26,0.06,0.46,0.11,0.59c0.09,0.17,0.24,0.31,0.42,0.42c0.09,0.06,0.2,0.1,0.31,0.14  c0.17,0.06,0.38,0.09,0.62,0.11c0.38,0.04,0.86,0.05,1.45,0.03c1.17-0.02,1.97-0.08,2.41-0.17c0.23-0.06,0.4-0.18,0.52-0.38  c0.12-0.2,0.16-0.42,0.1-0.65c-0.06-0.24-0.18-0.42-0.38-0.54c-0.2-0.12-0.41-0.15-0.64-0.1c-0.04,0.02-0.11,0.03-0.23,0.03  c-0.13,0.02-0.29,0.04-0.48,0.06c-0.45,0.04-0.9,0.06-1.33,0.06c-0.51,0.02-0.92,0.01-1.22-0.03v-0.26  c-0.02-0.47-0.03-1.13-0.03-1.98c-0.02-1.55-0.02-3.5,0-5.87c0-0.11,0.01-0.23,0.03-0.34c0.21,0,0.47-0.02,0.79-0.06  c0.13-0.02,0.23-0.03,0.28-0.03c0.3-0.04,0.6-0.03,0.88,0.03c0.23,0.06,0.44,0.02,0.64-0.1c0.2-0.12,0.32-0.3,0.37-0.52  c0.05-0.23,0.01-0.44-0.11-0.64c-0.12-0.2-0.3-0.33-0.53-0.38c-0.45-0.11-0.93-0.14-1.42-0.08c-0.06,0-0.16,0.01-0.31,0.03  c-0.25,0.02-0.44,0.04-0.59,0.06c0.02-1.47,0.05-2.79,0.09-3.94c0.02-0.85,0.04-1.53,0.06-2.04c0-0.26,0.01-0.48,0.03-0.65v-0.06  c0.98-0.08,1.75,0.07,2.3,0.43c0.19,0.13,0.4,0.17,0.64,0.13c0.24-0.05,0.42-0.17,0.55-0.37c0.13-0.2,0.17-0.41,0.13-0.64  c-0.05-0.23-0.17-0.41-0.38-0.54c-0.59-0.4-1.29-0.63-2.13-0.71c-0.66-0.06-1.35-0.02-2.07,0.11  C431.93,212.3,431.74,212.42,431.61,212.61 M418.31,212.01c-0.21-0.11-0.42-0.13-0.64-0.06c-0.22,0.08-0.38,0.22-0.5,0.42  c-0.11,0.21-0.13,0.43-0.06,0.65c0.04,0.09,0.21,0.63,0.51,1.62c0.3,0.98,0.49,1.6,0.57,1.84c0.4,1.27,0.74,2.36,1.02,3.29  c0.45,1.51,0.87,2.93,1.25,4.25c0.3,1.06,0.59,2.12,0.88,3.17c0,0.02,0.04,0.18,0.13,0.5c0.08,0.31,0.17,0.65,0.27,1.02  c0.09,0.37,0.16,0.63,0.2,0.78c0.08,0.25,0.14,0.48,0.2,0.71c0.23,0.76,0.42,1.34,0.57,1.76c0.1,0.28,0.29,0.46,0.6,0.54  c0.3,0.08,0.58,0.01,0.82-0.2c0.09-0.09,0.18-0.23,0.25-0.4c0.08-0.13,0.15-0.33,0.23-0.6c0.13-0.4,0.23-0.72,0.28-0.96  c0.3-1.38,0.6-2.9,0.91-4.56c0.15-0.95,0.38-2.41,0.68-4.39c0.13-0.76,0.23-1.34,0.28-1.76c0.41-2.63,0.82-4.82,1.22-6.58  c0.06-0.23,0.02-0.44-0.1-0.64c-0.12-0.2-0.3-0.33-0.52-0.38c-0.23-0.06-0.44-0.02-0.64,0.1c-0.2,0.12-0.33,0.3-0.38,0.52  c-0.42,1.8-0.83,4.04-1.25,6.72c-0.07,0.42-0.17,1-0.28,1.76c-0.3,1.96-0.54,3.42-0.71,4.36c-0.19,1.15-0.39,2.22-0.6,3.2  c-0.06-0.21-0.13-0.47-0.21-0.78c-0.09-0.31-0.16-0.58-0.21-0.81l-0.08-0.34c-0.28-1.08-0.59-2.16-0.91-3.23  c-0.38-1.32-0.79-2.74-1.25-4.25c-0.28-0.93-0.62-2.03-1.02-3.32c-0.08-0.25-0.26-0.86-0.57-1.83c-0.3-0.97-0.47-1.52-0.51-1.63  C418.66,212.29,418.52,212.12,418.31,212.01 M408.95,213.09c-0.16-0.17-0.36-0.26-0.59-0.28c-0.24-0.02-0.44,0.05-0.61,0.2  c-0.17,0.15-0.26,0.35-0.28,0.6c-0.02,0.09-0.04,0.32-0.07,0.68c-0.03,0.36-0.06,0.72-0.09,1.08c-0.03,0.36-0.06,0.7-0.1,1.02  c-0.04,0.32-0.06,0.5-0.06,0.54c-0.17,2.02-0.27,3.78-0.31,5.27c-0.06,2.99,0.16,5.3,0.65,6.94c0.32,1.1,0.78,1.93,1.36,2.49  c0.74,0.68,1.61,0.96,2.64,0.85c0.6-0.06,1.18-0.31,1.73-0.77c0.68-0.53,1.14-1.21,1.39-2.04c0.17-0.64,0.26-1.45,0.28-2.41  c0.02-0.66,0-1.55-0.06-2.66c-0.02-0.15-0.03-0.36-0.03-0.62c0-0.04-0.01-0.07-0.03-0.08v-0.09v-0.17  c-0.02-0.23-0.03-0.44-0.03-0.65c-0.09-2.06-0.09-4.48,0-7.26c0-0.15,0.01-0.47,0.03-0.96c0.02-0.49,0.03-0.77,0.03-0.82  c0-0.23-0.08-0.43-0.24-0.6c-0.16-0.17-0.36-0.26-0.6-0.27c-0.24-0.01-0.44,0.07-0.61,0.23c-0.17,0.16-0.25,0.35-0.25,0.58  c0,0.06-0.01,0.33-0.03,0.82c-0.02,0.49-0.03,0.81-0.03,0.96c-0.09,2.83-0.09,5.3,0,7.4c0,0.21,0.01,0.42,0.03,0.65v0.17  c0,0.02,0.01,0.05,0.03,0.08v0.09c0.02,0.28,0.03,0.5,0.03,0.65c0.06,1.06,0.08,1.9,0.06,2.52c-0.02,0.81-0.1,1.46-0.23,1.96  c-0.13,0.49-0.4,0.89-0.79,1.19c-0.3,0.25-0.59,0.39-0.88,0.43c-0.49,0.06-0.91-0.09-1.25-0.43c-0.38-0.34-0.69-0.92-0.93-1.73  c-0.44-1.47-0.62-3.62-0.57-6.44c0.04-1.44,0.14-3.16,0.31-5.16c0-0.02,0.01-0.19,0.04-0.53c0.03-0.33,0.06-0.67,0.1-1.03  c0.04-0.36,0.07-0.72,0.1-1.08c0.03-0.36,0.05-0.59,0.07-0.71C409.18,213.46,409.11,213.26,408.95,213.09 M394.71,212.11  c-0.16,0.16-0.24,0.36-0.24,0.59c0,0.24,0.08,0.44,0.24,0.61c0.16,0.17,0.36,0.25,0.61,0.25h2.52h2.55h0.06h0.03h0.23  c0.23,0.02,0.44,0.04,0.65,0.06h0.09c-0.04,0.15-0.09,0.3-0.14,0.45c-0.02,0.08-0.04,0.16-0.06,0.25c-0.09,0.23-0.23,0.61-0.4,1.13  c-0.4,1.17-0.87,2.43-1.42,3.77c-0.34,0.83-0.85,2.01-1.53,3.54c0,0.02-0.02,0.08-0.07,0.17c-0.05,0.09-0.07,0.15-0.07,0.17  c-1.13,2.55-1.97,4.55-2.49,6.01c-0.04,0.11-0.14,0.44-0.31,0.99h-0.03c-0.06,0.21-0.12,0.44-0.2,0.68  c-0.02,0.09-0.05,0.17-0.08,0.23v0.08c-0.02,0-0.03,0.01-0.03,0.03c-0.06,0.21-0.04,0.41,0.06,0.61c0.1,0.2,0.25,0.35,0.45,0.44  c0.55,0.19,2,0.25,4.37,0.2c1.61-0.04,2.95-0.1,4.03-0.2c0.25-0.02,0.44-0.12,0.59-0.3c0.15-0.18,0.22-0.39,0.2-0.62  c-0.02-0.24-0.12-0.43-0.3-0.58c-0.18-0.15-0.38-0.22-0.61-0.2c-1.06,0.09-2.38,0.16-3.97,0.2c-0.98,0.02-1.8,0.02-2.44,0h-0.45  c0-0.02,0.01-0.04,0.03-0.06c0.17-0.53,0.26-0.84,0.28-0.94c0.53-1.42,1.35-3.38,2.47-5.9c0-0.02,0.02-0.07,0.06-0.17  c0.04-0.09,0.07-0.15,0.09-0.17c0.68-1.55,1.19-2.75,1.53-3.6c0.57-1.36,1.06-2.65,1.47-3.86l0.4-1.13  c0.02-0.09,0.05-0.18,0.08-0.25c0.11-0.4,0.2-0.72,0.25-0.96c0.06-0.19,0.08-0.34,0.08-0.45c0.02-0.09,0.02-0.18,0-0.25  c-0.02-0.21-0.08-0.39-0.2-0.54c-0.09-0.11-0.22-0.21-0.37-0.28c-0.06-0.02-0.12-0.04-0.2-0.06c-0.08-0.02-0.18-0.04-0.31-0.06  c-0.17-0.02-0.41-0.05-0.71-0.09c-0.55-0.04-0.92-0.06-1.11-0.06h-2.55h-2.52C395.08,211.87,394.88,211.95,394.71,212.11   M390.51,230.8c-0.23,0.04-0.41,0.16-0.54,0.35c-0.13,0.2-0.18,0.41-0.14,0.64c0.08,0.36,0.21,0.64,0.4,0.85  c0.15,0.17,0.32,0.27,0.51,0.31c0.38,0.06,0.67-0.07,0.88-0.37c0.09-0.13,0.16-0.27,0.2-0.42v-0.31c0-0.38-0.17-0.63-0.51-0.77  C391.09,230.84,390.83,230.75,390.51,230.8 M377.4,214.32c0.24,0.01,0.44-0.06,0.61-0.21c0.17-0.15,0.27-0.34,0.28-0.58  c0.02-0.24-0.06-0.44-0.23-0.61c-0.74-0.83-1.49-1.26-2.27-1.28c-0.77-0.04-1.48,0.3-2.13,1.02c-0.94,1.08-1.67,2.9-2.18,5.47  c-0.47,2.4-0.63,4.82-0.48,7.26c0.17,2.72,0.69,4.78,1.56,6.18c0.34,0.53,0.77,0.92,1.28,1.16c0.4,0.19,0.85,0.28,1.36,0.28  c0.83,0,1.53-0.36,2.1-1.08c0.44-0.55,0.78-1.31,1.02-2.3c0.42-1.62,0.58-3.75,0.51-6.38v-0.14c0-0.02-0.01-0.07-0.03-0.14  c-0.02-0.08-0.03-0.12-0.03-0.14c-0.06-0.25-0.2-0.43-0.42-0.57c-0.59-0.34-1.31-0.5-2.18-0.48h-0.65  c-0.06-0.02-0.1-0.03-0.11-0.03c-0.45-0.02-0.76-0.02-0.91,0c-0.25,0.02-0.44,0.12-0.59,0.3c-0.15,0.18-0.22,0.39-0.2,0.62  c0.02,0.24,0.12,0.43,0.3,0.58c0.18,0.15,0.39,0.22,0.64,0.2c0.08-0.02,0.3-0.02,0.68,0c0.04,0,0.08,0.01,0.11,0.03h0.77  c0.4,0,0.72,0.04,0.96,0.11c0.04,2.34-0.12,4.21-0.48,5.61c-0.19,0.76-0.43,1.31-0.74,1.67c-0.23,0.28-0.47,0.42-0.74,0.42  c-0.51,0-0.91-0.22-1.19-0.65c-0.72-1.15-1.15-2.94-1.3-5.36c-0.13-2.31,0.02-4.59,0.45-6.85c0.43-2.26,1.03-3.81,1.79-4.66  c0.28-0.32,0.55-0.47,0.79-0.45c0.3,0,0.65,0.24,1.05,0.71C376.96,214.22,377.16,214.31,377.4,214.32 M367.89,212.76  c-0.17-0.16-0.37-0.24-0.61-0.24c-0.24,0-0.43,0.08-0.59,0.24c-0.16,0.16-0.24,0.36-0.24,0.61c0,0.61-0.05,2.22-0.14,4.85  c-0.06,1.62-0.09,2.97-0.11,4.03c-0.09,4.86,0.11,8.06,0.62,9.61c0.07,0.23,0.22,0.39,0.42,0.5c0.21,0.1,0.42,0.12,0.64,0.04  c0.22-0.08,0.38-0.22,0.5-0.43c0.11-0.21,0.13-0.41,0.06-0.62c-0.45-1.38-0.63-4.4-0.54-9.07c0.02-1.04,0.06-2.37,0.11-4  c0.09-2.65,0.14-4.28,0.14-4.9C368.14,213.12,368.06,212.92,367.89,212.76 M354.53,212.68c-0.15,0.18-0.22,0.39-0.2,0.62  c0.02,0.24,0.12,0.43,0.3,0.58c0.18,0.15,0.38,0.22,0.61,0.2c0.81-0.06,1.74-0.07,2.78-0.03c-0.02,0.34-0.05,1.58-0.09,3.71  c-0.04,1.78-0.07,3.23-0.08,4.37c-0.02,4.4,0.15,7.4,0.51,8.99c0.06,0.23,0.18,0.4,0.38,0.52c0.2,0.12,0.41,0.16,0.64,0.11  c0.23-0.05,0.4-0.17,0.53-0.38c0.12-0.21,0.17-0.42,0.13-0.65c-0.34-1.45-0.5-4.31-0.48-8.56c0.02-1.13,0.05-2.59,0.09-4.37  c0.04-2.06,0.06-3.27,0.08-3.63c0.79,0.08,1.87,0.21,3.23,0.4c0.23,0.02,0.44-0.04,0.62-0.18c0.19-0.14,0.3-0.33,0.33-0.55  c0.03-0.23-0.03-0.43-0.17-0.62c-0.14-0.19-0.33-0.3-0.55-0.34c-1.66-0.21-3-0.35-4-0.42c-1.55-0.13-2.91-0.15-4.08-0.06  C354.87,212.4,354.69,212.5,354.53,212.68 M350.64,211.56c-0.18-0.15-0.39-0.22-0.62-0.2c-0.24,0.02-0.43,0.12-0.58,0.3  c-0.15,0.18-0.22,0.38-0.2,0.61c0.06,0.79,0.11,3.95,0.17,9.47v1.73c0.02,2.65,0.04,4.5,0.06,5.56c0.02,0.79,0.04,1.4,0.06,1.81  v0.54c0.02,0.08,0.03,0.14,0.03,0.2c0.02,0.15,0.07,0.28,0.14,0.4c0.09,0.15,0.23,0.27,0.4,0.37c0.09,0.06,0.21,0.1,0.34,0.14  c0.17,0.04,0.38,0.08,0.62,0.11c0.36,0.04,0.84,0.06,1.45,0.06c0.36,0,0.78-0.01,1.25-0.03c0.06,0,0.15-0.01,0.28-0.03h0.2h0.28  c0.25,0,0.45-0.08,0.61-0.24c0.16-0.16,0.24-0.36,0.24-0.6c0-0.24-0.08-0.44-0.24-0.61c-0.16-0.17-0.36-0.25-0.61-0.25h-0.31  c-0.02,0-0.09,0-0.23,0.01c-0.13,0.01-0.22,0.01-0.25,0.01c-0.47,0.02-0.88,0.03-1.22,0.03c-0.53,0-0.95-0.02-1.27-0.06  c0-0.04-0.01-0.08-0.03-0.11c0-0.42-0.01-1.01-0.03-1.79c-0.02-1.06-0.04-2.9-0.06-5.53v-1.76c-0.06-5.56-0.11-8.75-0.17-9.58  C350.92,211.9,350.82,211.71,350.64,211.56 M342.03,207.87c-0.23,0.04-0.41,0.16-0.54,0.36c-0.13,0.2-0.18,0.41-0.14,0.64  c0.08,0.36,0.21,0.64,0.4,0.85c0.15,0.15,0.32,0.25,0.51,0.28c0.38,0.08,0.67-0.04,0.88-0.34c0.09-0.13,0.15-0.28,0.17-0.45  c0.02-0.08,0.03-0.17,0.03-0.28c0-0.38-0.17-0.64-0.51-0.79C342.62,207.9,342.36,207.82,342.03,207.87 M339.06,207.98  c-0.23,0.04-0.41,0.15-0.54,0.34c-0.13,0.19-0.18,0.4-0.14,0.62c0.06,0.38,0.19,0.67,0.4,0.88c0.13,0.15,0.3,0.25,0.51,0.28  c0.36,0.08,0.65-0.05,0.88-0.37c0.09-0.11,0.15-0.25,0.17-0.42c0.02-0.09,0.03-0.19,0.03-0.28c0-0.38-0.17-0.64-0.51-0.79  C339.62,208.01,339.36,207.93,339.06,207.98 M340.39,227.8c-0.08,0.02-0.19,0.03-0.34,0.03c-0.76,0-1.31,0.01-1.67,0.03  c0.08-0.28,0.15-0.6,0.23-0.94c0.17-0.62,0.37-1.4,0.6-2.32c0.04-0.13,0.14-0.53,0.31-1.21c0.17-0.67,0.27-1.08,0.31-1.23  c0.17-0.6,0.31-1.14,0.43-1.62c0.36-1.42,0.66-2.65,0.91-3.71c0.66,3.31,1.41,6.62,2.24,9.95c0.08,0.28,0.15,0.59,0.23,0.91  C342.94,227.74,341.86,227.78,340.39,227.8 M344.19,229.75c0.19,0.7,0.33,1.3,0.42,1.81c0.04,0.23,0.15,0.41,0.34,0.55  c0.19,0.14,0.4,0.19,0.64,0.14c0.24-0.05,0.42-0.17,0.55-0.35c0.13-0.19,0.18-0.4,0.14-0.62c-0.09-0.55-0.25-1.2-0.45-1.96  c-0.08-0.28-0.17-0.66-0.28-1.13c-0.26-0.91-0.43-1.52-0.51-1.84c-1.4-5.56-2.38-10.2-2.95-13.92c0.04-0.3-0.06-0.56-0.28-0.77  c-0.19-0.23-0.44-0.31-0.74-0.25c-0.23,0.04-0.41,0.15-0.55,0.33c-0.14,0.18-0.19,0.39-0.16,0.64v0.03  c-0.36,1.91-0.95,4.48-1.76,7.71c-0.13,0.47-0.27,1.02-0.42,1.64c-0.04,0.13-0.14,0.53-0.31,1.21c-0.17,0.67-0.27,1.07-0.31,1.21  c-0.23,0.93-0.43,1.71-0.6,2.35c-0.43,1.74-0.76,3.17-0.99,4.31c-0.06,0.23-0.02,0.44,0.11,0.64c0.13,0.2,0.31,0.32,0.54,0.37  c0.23,0.05,0.44,0,0.64-0.13c0.2-0.13,0.33-0.31,0.38-0.54c0.09-0.49,0.21-1.02,0.34-1.59c0.43-0.02,1.13-0.04,2.1-0.06  c0.15-0.02,0.26-0.03,0.34-0.03c1.62-0.02,2.83-0.07,3.6-0.14c0.02-0.02,0.04-0.03,0.06-0.03  C344.13,229.48,344.17,229.62,344.19,229.75 M329.32,232.5c0.18,0.15,0.38,0.22,0.61,0.2c0.23-0.02,0.42-0.12,0.57-0.3  c0.15-0.18,0.22-0.39,0.2-0.64c-0.26-3.08-0.42-6.4-0.45-9.95v-1.16c0.08,0,0.24-0.01,0.48-0.03c0.66-0.04,1.18-0.03,1.56,0.03  c0.08,0,0.16,0.01,0.25,0.03c0.23,0.04,0.44-0.01,0.62-0.14c0.19-0.13,0.31-0.31,0.35-0.54c0.05-0.23,0-0.43-0.13-0.62  c-0.13-0.19-0.31-0.31-0.54-0.37c-0.11-0.02-0.24-0.04-0.37-0.06c-0.45-0.06-1.07-0.07-1.84-0.03c-0.17,0.02-0.29,0.03-0.37,0.03  c0.04-1.12,0.09-2.07,0.17-2.86c0.09-0.81,0.21-1.46,0.34-1.96c0.06-0.23,0.12-0.42,0.2-0.57c0.04-0.08,0.07-0.12,0.08-0.14  c0.25-0.21,0.78-0.26,1.62-0.17c0.17,0.02,0.4,0.06,0.68,0.11c0.7,0.09,1.18,0.14,1.45,0.14c0.25,0,0.45-0.08,0.61-0.24  c0.16-0.16,0.24-0.36,0.24-0.6c0-0.24-0.08-0.44-0.24-0.61c-0.16-0.17-0.36-0.26-0.61-0.26c-0.17,0-0.57-0.05-1.19-0.14  c-0.3-0.04-0.55-0.07-0.74-0.08c-0.57-0.08-1.05-0.08-1.44-0.03c-0.59,0.06-1.08,0.25-1.47,0.57c-0.36,0.28-0.63,0.8-0.82,1.56  c-0.17,0.59-0.29,1.33-0.37,2.24c-0.17,1.51-0.25,3.48-0.23,5.9c0.04,3.61,0.19,6.98,0.45,10.12  C329.03,232.16,329.14,232.35,329.32,232.5 M320.87,211.56c-0.18-0.15-0.39-0.22-0.62-0.2c-0.24,0.02-0.43,0.12-0.58,0.3  c-0.15,0.18-0.22,0.38-0.2,0.61c0.06,0.79,0.11,3.95,0.17,9.47v1.73c0.02,2.65,0.04,4.5,0.06,5.56c0.02,0.79,0.04,1.4,0.06,1.81  v0.54c0.02,0.08,0.03,0.14,0.03,0.2c0.02,0.15,0.07,0.28,0.14,0.4c0.09,0.15,0.23,0.27,0.4,0.37c0.09,0.06,0.21,0.1,0.34,0.14  c0.17,0.04,0.38,0.08,0.62,0.11c0.36,0.04,0.84,0.06,1.45,0.06c0.36,0,0.77-0.01,1.25-0.03c0.06,0,0.15-0.01,0.28-0.03h0.2h0.28  c0.25,0,0.45-0.08,0.61-0.24c0.16-0.16,0.24-0.36,0.24-0.6c0-0.24-0.08-0.44-0.24-0.61c-0.16-0.17-0.36-0.25-0.61-0.25h-0.31  c-0.02,0-0.1,0-0.23,0.01c-0.13,0.01-0.22,0.01-0.25,0.01c-0.47,0.02-0.88,0.03-1.22,0.03c-0.53,0-0.95-0.02-1.28-0.06  c0-0.04-0.01-0.08-0.03-0.11c0-0.42-0.01-1.01-0.03-1.79c-0.02-1.06-0.04-2.9-0.06-5.53v-1.76c-0.06-5.56-0.11-8.75-0.17-9.58  C321.15,211.9,321.05,211.71,320.87,211.56 M310.85,212.61c-0.13,0.19-0.18,0.41-0.14,0.65c0.02,0.02,0.03,0.04,0.03,0.06v0.09  c-0.06,0.23-0.1,1.29-0.14,3.17c-0.04,1.76-0.08,3.75-0.11,5.98c-0.02,2.38-0.02,4.36,0,5.92c0,0.85,0.01,1.52,0.03,2.01  c0,0.26,0.01,0.47,0.03,0.62c0.02,0.26,0.06,0.46,0.11,0.59c0.09,0.17,0.24,0.31,0.43,0.42c0.09,0.06,0.2,0.1,0.31,0.14  c0.17,0.06,0.38,0.09,0.62,0.11c0.38,0.04,0.86,0.05,1.45,0.03c1.17-0.02,1.97-0.08,2.41-0.17c0.23-0.06,0.4-0.18,0.53-0.38  c0.12-0.2,0.16-0.42,0.1-0.65c-0.06-0.24-0.18-0.42-0.38-0.54c-0.2-0.12-0.41-0.15-0.64-0.1c-0.04,0.02-0.11,0.03-0.23,0.03  c-0.13,0.02-0.29,0.04-0.48,0.06c-0.45,0.04-0.9,0.06-1.33,0.06c-0.51,0.02-0.92,0.01-1.22-0.03v-0.26  c-0.02-0.47-0.03-1.13-0.03-1.98c-0.02-1.55-0.02-3.5,0-5.87c0-0.11,0.01-0.23,0.03-0.34c0.21,0,0.47-0.02,0.79-0.06  c0.13-0.02,0.23-0.03,0.28-0.03c0.3-0.04,0.6-0.03,0.88,0.03c0.23,0.06,0.44,0.02,0.64-0.1c0.2-0.12,0.32-0.3,0.37-0.52  c0.05-0.23,0.01-0.44-0.11-0.64c-0.12-0.2-0.3-0.33-0.52-0.38c-0.45-0.11-0.93-0.14-1.42-0.08c-0.06,0-0.16,0.01-0.31,0.03  c-0.25,0.02-0.44,0.04-0.6,0.06c0.02-1.47,0.05-2.79,0.08-3.94c0.02-0.85,0.04-1.53,0.06-2.04c0-0.26,0.01-0.48,0.03-0.65v-0.06  c0.98-0.08,1.75,0.07,2.3,0.43c0.19,0.13,0.4,0.17,0.64,0.13c0.24-0.05,0.42-0.17,0.55-0.37c0.13-0.2,0.17-0.41,0.13-0.64  c-0.05-0.23-0.17-0.41-0.38-0.54c-0.59-0.4-1.29-0.63-2.13-0.71c-0.66-0.06-1.35-0.02-2.07,0.11  C311.17,212.3,310.98,212.42,310.85,212.61 M306.12,212.76c-0.17-0.16-0.37-0.24-0.61-0.24c-0.24,0-0.44,0.08-0.6,0.24  c-0.16,0.16-0.24,0.36-0.24,0.61c0,0.61-0.05,2.22-0.14,4.85c-0.06,1.62-0.09,2.97-0.11,4.03c-0.09,4.86,0.11,8.06,0.62,9.61  c0.08,0.23,0.22,0.39,0.43,0.5c0.21,0.1,0.42,0.12,0.64,0.04c0.22-0.08,0.38-0.22,0.5-0.43c0.11-0.21,0.13-0.41,0.06-0.62  c-0.45-1.38-0.63-4.4-0.54-9.07c0.02-1.04,0.06-2.37,0.11-4c0.09-2.65,0.14-4.28,0.14-4.9  C306.37,213.12,306.29,212.92,306.12,212.76 M291.32,212.01c-0.21-0.11-0.42-0.13-0.64-0.06c-0.22,0.08-0.38,0.22-0.5,0.42  c-0.11,0.21-0.13,0.43-0.06,0.65c0.04,0.09,0.21,0.63,0.51,1.62c0.3,0.98,0.49,1.6,0.57,1.84c0.4,1.27,0.74,2.36,1.02,3.29  c0.45,1.51,0.87,2.93,1.25,4.25c0.3,1.06,0.6,2.12,0.88,3.17c0,0.02,0.04,0.18,0.13,0.5c0.08,0.31,0.17,0.65,0.27,1.02  c0.09,0.37,0.16,0.63,0.2,0.78c0.08,0.25,0.14,0.48,0.2,0.71c0.23,0.76,0.42,1.34,0.57,1.76c0.09,0.28,0.29,0.46,0.6,0.54  c0.3,0.08,0.58,0.01,0.82-0.2c0.09-0.09,0.18-0.23,0.26-0.4c0.08-0.13,0.15-0.33,0.23-0.6c0.13-0.4,0.23-0.72,0.28-0.96  c0.3-1.38,0.6-2.9,0.91-4.56c0.15-0.95,0.38-2.41,0.68-4.39c0.13-0.76,0.23-1.34,0.28-1.76c0.42-2.63,0.82-4.82,1.22-6.58  c0.06-0.23,0.02-0.44-0.1-0.64c-0.12-0.2-0.3-0.33-0.52-0.38c-0.23-0.06-0.44-0.02-0.64,0.1c-0.2,0.12-0.33,0.3-0.38,0.52  c-0.42,1.8-0.83,4.04-1.25,6.72c-0.08,0.42-0.17,1-0.28,1.76c-0.3,1.96-0.54,3.42-0.71,4.36c-0.19,1.15-0.39,2.22-0.6,3.2  c-0.06-0.21-0.13-0.47-0.21-0.78c-0.08-0.31-0.16-0.58-0.21-0.81l-0.08-0.34c-0.28-1.08-0.59-2.16-0.91-3.23  c-0.38-1.32-0.79-2.74-1.25-4.25c-0.28-0.93-0.62-2.03-1.02-3.32c-0.08-0.25-0.26-0.86-0.57-1.83c-0.3-0.97-0.47-1.52-0.51-1.63  C291.67,212.29,291.53,212.12,291.32,212.01 M290.56,230.8c-0.23,0.04-0.41,0.16-0.54,0.35c-0.13,0.2-0.18,0.41-0.14,0.64  c0.08,0.36,0.21,0.64,0.4,0.85c0.15,0.17,0.32,0.27,0.51,0.31c0.38,0.06,0.67-0.07,0.88-0.37c0.09-0.13,0.16-0.27,0.2-0.42v-0.31  c0-0.38-0.17-0.63-0.51-0.77C291.14,230.84,290.88,230.75,290.56,230.8 M276.95,211.33c-0.17-0.17-0.37-0.26-0.61-0.26  c-0.24,0-0.43,0.09-0.59,0.26c-0.16,0.17-0.24,0.37-0.24,0.59c0,1.68-0.04,4.81-0.11,9.38c-0.02,0.66-0.03,1.37-0.03,2.13  c-0.02,0.28-0.04,1.27-0.06,2.98c-0.44-0.11-0.91-0.19-1.42-0.23c-0.51-0.06-1.13-0.08-1.87-0.08c-0.04-1.21-0.04-2.61,0-4.2  c0.02-1.1,0.06-2.48,0.11-4.14c0.09-2.76,0.14-4.46,0.14-5.1c0-0.25-0.09-0.45-0.25-0.61c-0.17-0.16-0.37-0.24-0.61-0.24  s-0.44,0.08-0.59,0.24c-0.16,0.16-0.24,0.37-0.24,0.61c0,0.62-0.05,2.31-0.14,5.05c-0.06,1.68-0.09,3.07-0.11,4.17  c-0.09,5.03,0.11,8.34,0.62,9.95c0.06,0.21,0.19,0.37,0.4,0.48c0.21,0.11,0.42,0.14,0.65,0.07c0.23-0.07,0.4-0.2,0.51-0.41  c0.11-0.21,0.13-0.42,0.06-0.65c-0.23-0.74-0.39-1.91-0.48-3.52c1.34,0,2.41,0.12,3.2,0.37c-0.04,1.91-0.06,3.01-0.06,3.32  c-0.02,0.23,0.06,0.43,0.23,0.6c0.17,0.17,0.37,0.25,0.61,0.25c0.24,0,0.43-0.08,0.6-0.24c0.16-0.16,0.25-0.36,0.27-0.61  c0-0.23,0.01-0.91,0.03-2.05c0.02-1.14,0.04-2.35,0.06-3.63c0.02-1.28,0.04-2.05,0.06-2.34c0-0.76,0.01-1.46,0.03-2.13  c0.08-4.59,0.11-7.73,0.11-9.41C277.21,211.7,277.12,211.5,276.95,211.33 M266.49,213.85c0.21-0.11,0.34-0.28,0.41-0.51  c0.07-0.23,0.04-0.44-0.08-0.65c-0.12-0.21-0.3-0.34-0.53-0.4c-0.47-0.13-1.22-0.12-2.24,0.03c-1,0.13-1.74,0.32-2.21,0.57  c-1.53,0.81-2.64,2.31-3.32,4.51c-0.62,1.98-0.78,4.11-0.48,6.38c0.32,2.38,1.1,4.34,2.32,5.87c1.44,1.81,3.26,2.72,5.47,2.72  c0.23,0,0.43-0.09,0.6-0.25c0.17-0.17,0.25-0.37,0.25-0.59c0-0.23-0.08-0.43-0.25-0.6c-0.17-0.17-0.37-0.25-0.6-0.25  c-1.66,0-3.04-0.69-4.14-2.07c-1.02-1.28-1.67-2.97-1.96-5.05c-0.28-2.02-0.15-3.9,0.4-5.64c0.55-1.76,1.38-2.92,2.49-3.49  c0.3-0.17,0.85-0.31,1.64-0.42c0.79-0.11,1.31-0.13,1.56-0.06C266.06,213.99,266.28,213.97,266.49,213.85 M254.87,212.76  c-0.17-0.16-0.37-0.24-0.61-0.24c-0.24,0-0.44,0.08-0.6,0.24c-0.16,0.16-0.24,0.36-0.24,0.61c0,0.61-0.05,2.22-0.14,4.85  c-0.06,1.62-0.09,2.97-0.11,4.03c-0.1,4.86,0.11,8.06,0.62,9.61c0.08,0.23,0.22,0.39,0.43,0.5c0.21,0.1,0.42,0.12,0.64,0.04  c0.22-0.08,0.38-0.22,0.5-0.43c0.11-0.21,0.13-0.41,0.06-0.62c-0.45-1.38-0.63-4.4-0.54-9.07c0.02-1.04,0.06-2.37,0.11-4  c0.09-2.65,0.14-4.28,0.14-4.9C255.12,213.12,255.04,212.92,254.87,212.76 M245.61,211.56c-0.18-0.15-0.39-0.22-0.62-0.2  c-0.24,0.02-0.43,0.12-0.58,0.3c-0.15,0.18-0.22,0.38-0.2,0.61c0.06,0.79,0.11,3.95,0.17,9.47v1.73c0.02,2.65,0.04,4.5,0.06,5.56  c0.02,0.79,0.04,1.4,0.06,1.81v0.54c0.02,0.08,0.03,0.14,0.03,0.2c0.02,0.15,0.07,0.28,0.14,0.4c0.09,0.15,0.23,0.27,0.4,0.37  c0.09,0.06,0.21,0.1,0.34,0.14c0.17,0.04,0.38,0.08,0.62,0.11c0.36,0.04,0.84,0.06,1.45,0.06c0.36,0,0.77-0.01,1.25-0.03  c0.06,0,0.15-0.01,0.28-0.03h0.2h0.28c0.25,0,0.45-0.08,0.61-0.24c0.16-0.16,0.24-0.36,0.24-0.6c0-0.24-0.08-0.44-0.24-0.61  c-0.16-0.17-0.36-0.25-0.61-0.25h-0.31c-0.02,0-0.1,0-0.23,0.01c-0.13,0.01-0.22,0.01-0.25,0.01c-0.47,0.02-0.88,0.03-1.22,0.03  c-0.53,0-0.95-0.02-1.27-0.06c0-0.04-0.01-0.08-0.03-0.11c0-0.42-0.01-1.01-0.03-1.79c-0.02-1.06-0.04-2.9-0.06-5.53v-1.76  c-0.06-5.56-0.11-8.75-0.17-9.58C245.89,211.9,245.79,211.71,245.61,211.56 M233.08,211.84c-0.2,0.13-0.32,0.31-0.35,0.54  c-0.04,0.11-0.06,0.24-0.06,0.37c0.21,2.85,0.33,6.2,0.37,10.04c0.02,1.61,0.02,4.01,0,7.2v2.32c0,0.23,0.09,0.43,0.25,0.6  c0.17,0.17,0.37,0.25,0.61,0.25c0.24,0,0.43-0.08,0.6-0.25c0.16-0.17,0.24-0.37,0.24-0.6v-2.32c0.02-3.04,0.02-5.3,0-6.78  c0.66-0.26,1.22-0.36,1.67-0.28c0.4,0.06,0.75,0.26,1.05,0.62c0.3,0.36,0.57,0.89,0.79,1.59c0.19,0.55,0.37,1.29,0.54,2.21  c0.04,0.17,0.07,0.37,0.11,0.59c0.02,0.02,0.04,0.11,0.07,0.27c0.03,0.16,0.04,0.26,0.04,0.3c0.23,1.13,0.42,1.96,0.59,2.47  c0.08,0.23,0.22,0.39,0.43,0.5c0.21,0.1,0.43,0.12,0.65,0.06c0.23-0.07,0.39-0.21,0.5-0.42c0.1-0.22,0.12-0.43,0.04-0.64  c-0.15-0.47-0.33-1.23-0.54-2.27c0-0.04-0.02-0.14-0.06-0.3c-0.04-0.16-0.06-0.26-0.06-0.3c-0.04-0.23-0.08-0.42-0.11-0.57  c-0.19-1.02-0.39-1.83-0.6-2.44c-0.3-0.91-0.67-1.62-1.11-2.13c-0.28-0.36-0.6-0.64-0.96-0.85c0.34-0.34,0.62-0.74,0.85-1.19  c0.38-0.83,0.51-1.72,0.38-2.65c-0.12-0.94-0.47-1.87-1.03-2.79c-0.53-0.87-1.18-1.6-1.94-2.2c-0.77-0.59-1.55-0.96-2.34-1.09  C233.49,211.66,233.28,211.71,233.08,211.84 M236.56,215.86c0.42,0.68,0.68,1.36,0.78,2.04c0.1,0.68,0.03,1.28-0.21,1.79  c-0.25,0.49-0.6,0.87-1.05,1.13c-0.32,0.17-0.77,0.33-1.36,0.48c-0.04-2.8-0.13-5.32-0.28-7.57  C235.28,214.21,235.99,214.92,236.56,215.86 M223.56,213.09c-0.16-0.17-0.36-0.26-0.6-0.28c-0.24-0.02-0.44,0.05-0.61,0.2  c-0.17,0.15-0.27,0.35-0.28,0.6c-0.02,0.09-0.04,0.32-0.07,0.68c-0.03,0.36-0.06,0.72-0.08,1.08c-0.03,0.36-0.06,0.7-0.1,1.02  c-0.04,0.32-0.06,0.5-0.06,0.54c-0.17,2.02-0.27,3.78-0.31,5.27c-0.06,2.99,0.16,5.3,0.65,6.94c0.32,1.1,0.78,1.93,1.36,2.49  c0.74,0.68,1.61,0.96,2.64,0.85c0.6-0.06,1.18-0.31,1.73-0.77c0.68-0.53,1.14-1.21,1.39-2.04c0.17-0.64,0.26-1.45,0.28-2.41  c0.02-0.66,0-1.55-0.06-2.66c-0.02-0.15-0.03-0.36-0.03-0.62c0-0.04-0.01-0.07-0.03-0.08v-0.09v-0.17  c-0.02-0.23-0.03-0.44-0.03-0.65c-0.1-2.06-0.1-4.48,0-7.26c0-0.15,0.01-0.47,0.03-0.96c0.02-0.49,0.03-0.77,0.03-0.82  c0-0.23-0.08-0.43-0.24-0.6c-0.16-0.17-0.36-0.26-0.6-0.27c-0.24-0.01-0.44,0.07-0.61,0.23c-0.17,0.16-0.25,0.35-0.25,0.58  c0,0.06-0.01,0.33-0.03,0.82c-0.02,0.49-0.03,0.81-0.03,0.96c-0.09,2.83-0.09,5.3,0,7.4c0,0.21,0.01,0.42,0.03,0.65v0.17  c0,0.02,0.01,0.05,0.03,0.08v0.09c0.02,0.28,0.03,0.5,0.03,0.65c0.06,1.06,0.08,1.9,0.06,2.52c-0.02,0.81-0.1,1.46-0.23,1.96  c-0.13,0.49-0.4,0.89-0.79,1.19c-0.3,0.25-0.6,0.39-0.88,0.43c-0.49,0.06-0.91-0.09-1.25-0.43c-0.38-0.34-0.69-0.92-0.94-1.73  c-0.43-1.47-0.62-3.62-0.57-6.44c0.04-1.44,0.14-3.16,0.31-5.16c0-0.02,0.01-0.19,0.04-0.53c0.03-0.33,0.06-0.67,0.1-1.03  c0.04-0.36,0.07-0.72,0.1-1.08c0.03-0.36,0.05-0.59,0.07-0.71C223.79,213.46,223.72,213.26,223.56,213.09 M226.98,210.03  c-0.23,0.04-0.41,0.16-0.54,0.35c-0.13,0.2-0.18,0.41-0.14,0.64c0.08,0.36,0.21,0.64,0.4,0.85c0.15,0.15,0.32,0.25,0.51,0.28  c0.38,0.08,0.67-0.04,0.88-0.34c0.09-0.13,0.15-0.28,0.17-0.45c0.02-0.08,0.03-0.17,0.03-0.28c0-0.38-0.17-0.64-0.51-0.79  C227.56,210.05,227.3,209.97,226.98,210.03 M223.77,210.03c-0.23,0.04-0.41,0.15-0.54,0.34c-0.13,0.19-0.18,0.4-0.14,0.62  c0.06,0.38,0.19,0.67,0.4,0.88c0.13,0.15,0.3,0.25,0.51,0.28c0.36,0.08,0.65-0.05,0.88-0.37c0.09-0.11,0.15-0.25,0.17-0.42  c0.02-0.09,0.03-0.19,0.03-0.28c0-0.38-0.17-0.64-0.51-0.79C224.34,210.05,224.07,209.97,223.77,210.03 M210.08,212.68  c-0.15,0.18-0.22,0.39-0.2,0.62c0.02,0.24,0.12,0.43,0.3,0.58c0.18,0.15,0.38,0.22,0.61,0.2c0.81-0.06,1.74-0.07,2.78-0.03  c-0.02,0.34-0.05,1.58-0.09,3.71c-0.04,1.78-0.07,3.23-0.08,4.37c-0.02,4.4,0.15,7.4,0.51,8.99c0.06,0.23,0.18,0.4,0.38,0.52  c0.2,0.12,0.41,0.16,0.64,0.11c0.23-0.05,0.4-0.17,0.52-0.38c0.12-0.21,0.17-0.42,0.13-0.65c-0.34-1.45-0.5-4.31-0.48-8.56  c0.02-1.13,0.05-2.59,0.08-4.37c0.04-2.06,0.07-3.27,0.08-3.63c0.79,0.08,1.87,0.21,3.23,0.4c0.23,0.02,0.43-0.04,0.62-0.18  c0.19-0.14,0.3-0.33,0.33-0.55c0.03-0.23-0.03-0.43-0.17-0.62c-0.14-0.19-0.33-0.3-0.55-0.34c-1.66-0.21-3-0.35-4-0.42  c-1.55-0.13-2.91-0.15-4.08-0.06C210.42,212.4,210.23,212.5,210.08,212.68 M203.31,227.8c-0.08,0.02-0.19,0.03-0.34,0.03  c-0.76,0-1.31,0.01-1.67,0.03c0.07-0.28,0.15-0.6,0.23-0.94c0.17-0.62,0.37-1.4,0.6-2.32c0.04-0.13,0.14-0.53,0.31-1.21  c0.17-0.67,0.27-1.08,0.31-1.23c0.17-0.6,0.31-1.14,0.42-1.62c0.36-1.42,0.66-2.65,0.91-3.71c0.66,3.31,1.41,6.62,2.24,9.95  c0.07,0.28,0.15,0.59,0.23,0.91C205.86,227.74,204.78,227.78,203.31,227.8 M207.1,229.75c0.19,0.7,0.33,1.3,0.42,1.81  c0.04,0.23,0.15,0.41,0.34,0.55c0.19,0.14,0.4,0.19,0.64,0.14c0.24-0.05,0.42-0.17,0.55-0.35c0.13-0.19,0.18-0.4,0.14-0.62  c-0.09-0.55-0.25-1.2-0.45-1.96c-0.08-0.28-0.17-0.66-0.28-1.13c-0.27-0.91-0.43-1.52-0.51-1.84c-1.4-5.56-2.38-10.2-2.95-13.92  c0.04-0.3-0.06-0.56-0.28-0.77c-0.19-0.23-0.43-0.31-0.74-0.25c-0.23,0.04-0.41,0.15-0.55,0.33c-0.14,0.18-0.19,0.39-0.16,0.64  v0.03c-0.36,1.91-0.94,4.48-1.76,7.71c-0.13,0.47-0.27,1.02-0.43,1.64c-0.04,0.13-0.14,0.53-0.31,1.21  c-0.17,0.67-0.27,1.07-0.31,1.21c-0.23,0.93-0.42,1.71-0.59,2.35c-0.44,1.74-0.77,3.17-0.99,4.31c-0.06,0.23-0.02,0.44,0.11,0.64  c0.13,0.2,0.31,0.32,0.54,0.37c0.23,0.05,0.44,0,0.64-0.13c0.2-0.13,0.33-0.31,0.38-0.54c0.09-0.49,0.21-1.02,0.34-1.59  c0.43-0.02,1.13-0.04,2.1-0.06c0.15-0.02,0.27-0.03,0.34-0.03c1.62-0.02,2.82-0.07,3.6-0.14c0.02-0.02,0.04-0.03,0.06-0.03  C207.05,229.48,207.09,229.62,207.1,229.75 M186.33,232.89c0.17,0.16,0.37,0.24,0.61,0.24c0.24,0,0.43-0.08,0.59-0.25  c0.16-0.17,0.24-0.38,0.24-0.62c0-0.45-0.01-1.1-0.03-1.93c-0.08-3.16-0.11-5.49-0.11-7c0.02-1.7,0.07-3.28,0.14-4.73v-0.17  c0.04-0.68,0.07-1.18,0.08-1.5c0.02-0.28,0.03-0.55,0.03-0.79c0.66,1.49,1.46,3.45,2.38,5.87c2.02,5.29,3.28,8.85,3.77,10.69  c0.02,0.08,0.05,0.15,0.08,0.23c0.15,0.34,0.42,0.51,0.79,0.51c0.23,0,0.42-0.08,0.59-0.25c0.17-0.17,0.25-0.37,0.25-0.59  c0-1.53-0.04-2.72-0.11-3.57c-0.15-2.02-0.23-4.33-0.23-6.92v-3.2v-3.17v-0.2v-0.09v-0.11v-0.08c0.02-0.66,0.02-1.21,0-1.64  c-0.02-0.32-0.04-0.61-0.06-0.88c-0.02-0.23-0.12-0.42-0.3-0.57c-0.18-0.15-0.39-0.22-0.62-0.2c-0.24,0.02-0.43,0.12-0.58,0.3  c-0.15,0.18-0.21,0.39-0.18,0.62c0.03,0.24,0.04,0.5,0.04,0.78c0.02,0.4,0.02,0.92,0,1.56v0.06v0.14v0.09v0.23v3.17v3.2  c0,1.7,0.03,3.24,0.09,4.62c-0.64-1.78-1.29-3.54-1.96-5.3c-0.96-2.5-1.78-4.51-2.44-6.04c-0.4-0.87-0.72-1.55-0.96-2.04  c-0.15-0.28-0.28-0.5-0.4-0.65c-0.21-0.3-0.44-0.49-0.68-0.57c-0.27-0.07-0.52-0.04-0.75,0.11c-0.24,0.15-0.35,0.37-0.35,0.65v0.06  c0,0.04-0.01,0.08-0.03,0.11v0.43c-0.02,0.47-0.03,0.92-0.03,1.33c0,0.59-0.02,1.27-0.06,2.04c-0.02,0.32-0.05,0.82-0.09,1.5v0.14  c-0.08,1.49-0.12,3.11-0.14,4.85c0,1.51,0.04,3.87,0.11,7.06c0.02,0.81,0.03,1.46,0.03,1.93  C186.07,232.53,186.16,232.73,186.33,232.89 M182.58,230.8c-0.23,0.04-0.41,0.16-0.54,0.35c-0.13,0.2-0.18,0.41-0.14,0.64  c0.08,0.36,0.21,0.64,0.4,0.85c0.15,0.17,0.32,0.27,0.51,0.31c0.38,0.06,0.67-0.07,0.88-0.37c0.09-0.13,0.16-0.27,0.2-0.42v-0.31  c0-0.38-0.17-0.63-0.51-0.77C183.17,230.84,182.91,230.75,182.58,230.8"></path>	<path class="st0" d="M47.67,146.44c1.68,2.14,1.57,5.24-0.4,7.21c0,0,0,0,0,0c-2.06,2.06-3.09,4.75-3.12,7.45  c-0.37-1.34-0.58-2.74-0.58-4.17C43.57,153,45.03,149.31,47.67,146.44 M47.69,154.97c4.68,4.91,7.28,11.31,7.28,18.12  c0,3.54-0.7,6.97-2.02,10.14c0.17-0.99,0.27-1.99,0.27-3.01c0-4.65-1.81-9.02-5.1-12.31c0,0,0,0,0,0  C44.57,164.36,44.44,158.69,47.69,154.97 M100.59,30.62c-1.71-4.85-29.19-11.74-42.53,8.23c-2.32,3.47-4.15,7.41-5.7,11.56  c0.93-6.48,0.84-12.92-0.11-18.69C47.97,5.83,18.55,0.02,14.69,4.03c-3.29,3.42-4.81,23.43,3.68,34.91  c7.16,9.68,14.13,11.54,19.76,16.3c3.48,2.94,5.98,8.34,7.11,11.99c1.17,5.98,1.07,12.74,1.2,18.99  c0.25,11.29,0.56,37.63,0.11,52.48c-1.12,0.31-2.02,0.91-2.64,1.85c-0.94,1.41-1.46,3.28-1.54,5.59c0,2.4,0.31,4.18,0.89,5.42  c-0.58,1.71-0.89,3.51-0.89,5.37c0,4.47,1.74,8.67,4.9,11.83c0,0,0,0,0,0c3.06,3.06,4.75,7.13,4.75,11.46  c0,3.79-1.29,7.38-3.66,10.27c-0.36,0.4-0.7,0.81-1.08,1.19c-0.23,0.23-0.23,0.62,0,0.85c0.12,0.12,0.27,0.18,0.43,0.18  c0.15,0,0.31-0.06,0.43-0.18c5.19-5.19,8.05-12.1,8.05-19.44c0-7.13-2.72-13.83-7.62-18.96c1.51-0.2,2.7-0.86,3.52-2.08  c0.98-1.46,1.48-3.51,1.48-6.17c0.08-2.74-0.26-4.67-1.03-5.78c-0.49-0.7-1.24-1.16-2.2-1.42c-0.24-12.73,0.3-32.18,0.6-37.17  c0.57-9.48,0.28-21.04-0.03-28.59c1.1-4.96,3.68-7.29,10.8-9.15c6.52-1.7,12.78-0.44,22.41-5.76  C95.53,51.72,102.04,34.75,100.59,30.62"></path></g><g></g><g></g><g></g><g></g><g></g><g></g></svg>