<?xml version="1.0" encoding="UTF-8" standalone="no"?>
<svg
   version="1.0"
   width="1024.000000pt"
   height="1024.000000pt"
   viewBox="0 0 1024.000000 1024.000000"
   preserveAspectRatio="xMidYMid meet"
   id="svg3"
   sodipodi:docname="psm-icon-512.svg"
   inkscape:version="1.4 (e7c3feb1, 2024-10-09)"
   xmlns:inkscape="http://www.inkscape.org/namespaces/inkscape"
   xmlns:sodipodi="http://sodipodi.sourceforge.net/DTD/sodipodi-0.dtd"
   xmlns="http://www.w3.org/2000/svg"
   xmlns:svg="http://www.w3.org/2000/svg">
  <defs
     id="defs3" />
  <sodipodi:namedview
     id="namedview3"
     pagecolor="#ffffff"
     bordercolor="#000000"
     borderopacity="0.25"
     inkscape:showpageshadow="2"
     inkscape:pageopacity="0.0"
     inkscape:pagecheckerboard="0"
     inkscape:deskcolor="#d1d1d1"
     inkscape:document-units="pt"
     inkscape:zoom="0.13613233"
     inkscape:cx="734.57938"
     inkscape:cy="800.69153"
     inkscape:window-width="1104"
     inkscape:window-height="681"
     inkscape:window-x="0"
     inkscape:window-y="33"
     inkscape:window-maximized="0"
     inkscape:current-layer="svg3" />
  <g
     transform="matrix(0.10456327,0,0,-0.10074925,-13.217674,1025.9256)"
     fill="#000000"
     stroke="none"
     id="g3"
     style="fill:#008000">
    <path
       d="m 7003,7662 c -11,-11 -17,-12 -26,-3 -13,13 -133,15 -141,2 -3,-4 -29,-6 -57,-3 -98,9 -517,-34 -808,-84 -287,-49 -522,-102 -791,-178 -317,-90 -814,-289 -764,-306 17,-6 17,-7 0,-13 -25,-10 -38,-9 -31,3 22,36 -264,-133 -430,-253 -314,-229 -538,-494 -702,-833 -146,-301 -214,-582 -229,-951 -13,-319 40,-655 152,-950 65,-172 123,-289 199,-402 63,-95 63,-93 3,-171 -130,-171 -452,-708 -477,-798 -13,-44 3,-96 40,-126 24,-21 41,-26 83,-26 68,0 91,22 157,150 90,176 172,314 322,540 60,91 113,169 117,174 5,4 64,-19 132,-52 67,-34 164,-75 213,-92 138,-48 397,-108 541,-125 179,-21 464,-32 464,-17 0,8 16,10 48,7 34,-4 41,-3 27,4 -11,5 -15,10 -8,10 6,1 19,4 28,7 10,4 15,2 13,-7 -2,-9 9,-12 42,-10 263,15 602,126 907,298 234,131 504,372 677,603 102,136 127,176 120,197 -4,13 -3,14 4,5 6,-10 19,5 49,55 85,144 115,204 109,218 -3,8 0,14 7,12 8,-1 11,8 9,26 -2,20 2,27 15,27 15,0 16,2 3,10 -13,8 -13,10 1,10 17,0 65,100 119,248 30,84 38,120 20,92 -5,-8 -10,-13 -11,-10 0,3 -2,22 -4,42 -2,30 0,34 10,25 7,-7 11,-15 9,-19 -2,-4 1,-10 7,-14 7,-4 9,-3 5,4 -3,5 -2,12 3,14 18,7 152,470 150,518 0,10 -2,11 -6,3 -9,-25 -19,-13 -19,25 -1,20 1,28 4,17 4,-15 8,-11 18,20 l 12,40 -4,-45 -3,-45 14,55 c 39,144 105,566 124,790 13,140 30,468 34,648 3,90 0,132 -7,132 -7,0 -7,3 0,8 8,5 9,22 3,57 -4,28 -8,56 -8,63 -1,6 -6,12 -12,12 -5,0 -7,-4 -4,-10 3,-5 1,-10 -4,-10 -6,0 -11,7 -11,15 0,8 5,15 10,15 14,0 11,20 -11,65 -11,22 -17,31 -14,21 9,-33 -14,-85 -41,-92 -13,-3 -24,-12 -24,-20 0,-17 -17,-18 -23,-1 -3,9 -8,8 -18,-4 -8,-9 -20,-19 -28,-21 -11,-3 -9,-9 9,-26 13,-12 18,-22 12,-22 -7,0 -12,-12 -12,-27 0,-22 -2,-25 -10,-13 -8,12 -10,12 -10,1 0,-11 -3,-11 -15,-1 -8,7 -12,17 -8,23 4,6 8,31 9,56 6,83 17,108 35,81 9,-12 10,-12 5,3 -3,9 -1,17 5,17 6,0 8,4 4,9 -3,6 4,15 15,21 11,6 20,17 20,25 0,7 11,22 25,33 l 26,20 -56,60 c -75,82 -124,108 -197,107 -32,-1 -58,0 -58,1 0,2 8,10 18,20 16,17 16,17 -5,12 -13,-3 -23,-3 -23,2 0,15 -82,17 -97,2 z m -75,-9 c -15,-2 -42,-2 -60,0 -18,2 -6,4 27,4 33,0 48,-2 33,-4 z m -80,-12 c 35,-1 51,-5 47,-12 -8,-13 -144,-9 -162,4 -9,6 -13,5 -13,-2 0,-7 -4,-9 -10,-6 -24,15 -6,25 38,21 26,-2 71,-5 100,-5 z m -393,-51 c 11,-5 14,-9 7,-9 -7,-1 -11,-5 -8,-10 3,-5 -1,-11 -9,-14 -9,-4 -12,-1 -8,9 3,8 -1,14 -11,14 -9,0 -16,-5 -16,-12 0,-6 -3,-9 -6,-5 -10,10 4,37 18,36 7,0 22,-4 33,-9 z m 232,-5 c 0,-8 -4,-12 -9,-9 -5,3 -6,10 -3,15 9,13 12,11 12,-6 z m 143,5 c 56,5 92,2 103,-10 9,-10 9,-11 -1,-6 -7,4 -19,2 -27,-4 -12,-10 -18,-10 -30,0 -12,10 -15,9 -15,-6 0,-16 -2,-17 -10,-4 -7,12 -10,12 -10,1 0,-9 -8,-11 -26,-7 -15,4 -23,3 -20,-3 3,-5 -8,-4 -25,2 l -31,12 28,6 c 27,6 26,7 -11,9 -39,2 -39,3 -10,9 17,4 39,6 50,3 11,-2 27,-3 35,-2 z m 390,-5 c -7,-8 -9,-15 -4,-15 5,0 1,-5 -9,-11 -15,-9 -16,-12 -2,-25 14,-14 20,-34 11,-34 -3,0 -12,7 -21,16 -13,13 -16,14 -15,3 8,-55 -23,-89 -61,-68 -13,7 -19,7 -15,1 3,-6 -8,-14 -26,-18 l -33,-7 37,-13 c 50,-17 104,-59 134,-103 13,-20 24,-29 24,-21 0,12 2,12 9,2 19,-31 4,-540 -25,-857 -33,-360 -119,-838 -203,-1128 -31,-104 -122,-370 -159,-463 -39,-97 -171,-359 -219,-434 -226,-355 -497,-612 -835,-790 -48,-26 -85,-50 -81,-55 5,-4 2,-5 -5,-1 -7,4 -58,-11 -115,-33 -227,-88 -440,-131 -697,-138 -325,-10 -598,35 -904,147 -60,22 -113,37 -117,34 -5,-3 -9,0 -9,7 0,7 -3,9 -7,6 -3,-4 -12,1 -20,11 -13,16 -14,16 -9,0 3,-12 1,-15 -10,-11 -7,3 -14,12 -14,20 0,8 -4,12 -8,9 -4,-2 -13,4 -20,14 -10,17 4,39 116,177 70,87 183,225 251,306 l 125,147 h 229 c 186,0 228,2 224,13 -3,9 2,13 16,11 33,-4 34,-5 12,-13 -33,-13 168,-19 648,-17 l 458,1 35,37 c 27,30 34,46 34,79 0,35 -6,48 -39,80 -28,28 -48,39 -72,41 -51,2 -193,4 -777,8 -402,3 -532,7 -530,16 5,22 287,318 675,710 l 172,174 548,6 c 591,6 579,5 623,61 25,32 26,120 1,115 -8,-2 -11,3 -8,13 4,10 1,15 -11,15 -15,0 -15,2 -2,10 13,8 13,10 -2,10 -9,0 -18,6 -20,13 -5,14 -193,20 -219,6 -9,-4 -19,-6 -23,-2 -11,12 -290,2 -298,-10 -6,-8 -10,-9 -15,-1 -9,11 -53,14 -53,3 0,-4 -14,-3 -32,2 -20,5 -44,5 -63,-1 -90,-28 -139,-28 -171,1 -11,11 -23,16 -27,13 -3,-3 -5,3 -4,14 0,11 5,18 11,15 5,-4 7,1 3,9 -6,17 17,57 28,47 3,-4 7,-16 8,-27 1,-13 6,-18 13,-14 7,4 97,90 201,192 104,102 297,290 430,419 223,216 270,270 240,272 -8,0 -8,2 1,6 6,2 12,11 12,18 0,7 -6,16 -12,19 -10,5 -10,7 -1,12 10,4 9,12 -2,35 -18,34 -62,59 -105,59 -55,0 -37,15 -380,-314 -191,-183 -536,-523 -570,-562 -17,-19 -35,-32 -40,-29 -6,4 -8,11 -5,16 3,5 -2,6 -11,2 -12,-4 -15,-3 -10,5 4,7 2,12 -4,12 -7,0 -10,6 -7,13 3,8 1,20 -3,27 -5,7 -4,24 1,37 5,14 5,23 -1,23 -6,0 -10,7 -10,15 0,9 6,12 17,8 11,-4 14,-3 9,5 -4,7 -3,12 3,12 5,0 12,-6 15,-12 3,-7 3,32 1,87 -12,267 -18,335 -26,335 -5,0 -9,5 -9,11 0,5 5,7 10,4 13,-8 13,1 -1,26 -7,13 -7,25 -1,32 13,16 4,94 -15,134 -15,33 -65,63 -103,63 -36,0 -90,-31 -105,-61 -21,-39 -18,-227 10,-759 2,-52 5,-118 5,-147 0,-32 6,-57 15,-67 17,-17 20,-30 5,-21 -5,3 -10,-3 -10,-14 0,-12 -87,-108 -233,-258 -227,-232 -394,-405 -511,-530 -32,-34 -55,-67 -51,-72 4,-7 -1,-9 -12,-5 -16,5 -15,3 2,-11 20,-17 20,-17 -2,-12 -13,3 -26,0 -30,-6 -3,-6 -12,7 -19,29 -7,23 -12,31 -13,19 -1,-18 -3,-18 -11,-3 -13,22 -1,56 12,36 10,-14 6,162 -14,600 -10,207 -15,262 -25,258 -7,-3 -13,-1 -13,4 0,6 6,10 14,10 8,0 12,9 10,23 -2,12 -5,74 -7,138 -5,131 -18,168 -73,194 -43,20 -73,19 -112,-5 -66,-40 -67,-50 -53,-420 7,-181 14,-338 15,-347 2,-10 7,-115 11,-233 4,-118 9,-223 11,-233 2,-10 4,-63 5,-117 1,-67 5,-98 12,-93 6,4 8,0 4,-10 -3,-9 -2,-17 3,-19 8,-3 14,-47 10,-78 -1,-11 -4,-9 -10,5 -7,17 -9,15 -9,-12 -1,-17 -6,-35 -11,-38 -38,-24 -453,-532 -445,-545 4,-6 1,-10 -5,-10 -6,0 -8,-5 -5,-11 4,-6 -2,-13 -14,-16 -12,-3 -21,-12 -21,-19 0,-20 -22,-13 -37,11 -43,68 -157,317 -187,407 -125,382 -149,768 -72,1172 9,43 18,88 21,100 4,12 3,16 -2,10 -6,-9 -11,-8 -21,2 -13,14 -9,17 18,15 11,-1 24,24 43,86 28,89 87,233 118,288 87,156 122,212 188,299 139,186 358,383 566,511 44,26 87,54 95,61 14,11 227,119 310,158 19,9 95,40 169,69 103,42 128,55 111,60 -41,11 -8,33 41,29 l 43,-4 -30,-14 c -24,-12 -25,-13 -4,-8 36,9 70,23 70,28 0,2 -9,2 -20,-1 -11,-3 -20,0 -20,6 0,6 -3,10 -7,10 -21,-3 -53,2 -53,9 0,4 21,7 48,6 26,-1 58,-3 72,-3 20,-1 22,-3 10,-11 -24,-16 10,-13 61,6 51,18 378,108 429,118 67,14 305,67 315,71 6,2 -11,3 -38,3 -26,-1 -53,4 -59,10 -12,12 16,11 108,-3 17,-3 102,6 188,20 240,39 724,85 890,85 82,0 85,9 3,11 -31,1 -57,6 -57,11 0,19 50,58 75,58 15,0 24,-4 20,-10 -8,-12 5,-13 24,-1 9,6 10,11 2,15 -6,4 -11,12 -11,18 0,6 10,3 22,-8 12,-10 18,-14 15,-7 -4,6 0,16 10,22 11,6 13,11 5,11 -7,0 -10,5 -7,10 4,6 10,8 15,5 5,-3 13,3 19,12 6,10 11,15 11,11 0,-3 12,-3 28,2 15,5 40,9 56,9 24,1 27,-1 16,-14 z m -837,-8 c -2,-4 1,-15 8,-23 10,-12 9,-13 -5,-8 -9,3 -16,12 -16,19 0,7 -6,15 -12,18 -7,3 -3,4 9,4 12,-1 19,-5 16,-10 z m 140,6 c -7,-2 -19,-2 -25,0 -7,3 -2,5 12,5 14,0 19,-2 13,-5 z m -221,-38 c 3,-13 2,-22 -2,-20 -11,7 -20,45 -10,45 4,0 10,-11 12,-25 z m 149,-32 c 13,-16 12,-17 -3,-4 -10,7 -18,15 -18,17 0,8 8,3 21,-13 z m -626,-3 c 3,-6 -1,-7 -9,-4 -18,7 -21,14 -7,14 6,0 13,-4 16,-10 z m 82,4 c -3,-3 -12,-4 -19,-1 -8,3 -5,6 6,6 11,1 17,-2 13,-5 z m 740,-10 c -3,-3 -12,-4 -19,-1 -8,3 -5,6 6,6 11,1 17,-2 13,-5 z m 168,-43 c 3,-5 2,-12 -3,-15 -5,-3 -9,1 -9,9 0,17 3,19 12,6 z m 85,5 c 0,-3 -4,-8 -10,-11 -5,-3 -10,-1 -10,4 0,6 5,11 10,11 6,0 10,-2 10,-4 z m -643,-12 c -3,-3 -12,-4 -19,-1 -8,3 -5,6 6,6 11,1 17,-2 13,-5 z m 58,-4 c 3,-5 1,-10 -4,-10 -6,0 -11,5 -11,10 0,6 2,10 4,10 3,0 8,-4 11,-10 z m 389,-1 c -5,-9 -104,-7 -104,2 0,4 24,6 54,5 30,0 52,-4 50,-7 z m -227,-5 c -3,-3 -12,-4 -19,-1 -8,3 -5,6 6,6 11,1 17,-2 13,-5 z m -1133,-35 c -3,-5 -14,-9 -25,-9 -10,0 -19,-3 -19,-7 0,-5 -17,-7 -37,-6 -52,2 -52,3 -13,16 42,15 102,19 94,6 z m 180,-100 c -3,-5 2,-9 11,-9 9,0 13,-4 10,-10 -3,-5 -26,-7 -53,-4 -26,3 -57,6 -69,6 -12,0 -24,7 -27,15 -4,9 -2,11 6,7 16,-10 58,-12 64,-2 2,4 14,5 25,3 16,-3 19,0 15,12 -5,13 -4,14 9,3 8,-7 12,-16 9,-21 z m -189,-9 c 3,-5 2,-10 -4,-10 -5,0 -13,5 -16,10 -3,6 -2,10 4,10 5,0 13,-4 16,-10 z m -521,-49 c 3,-5 -4,-12 -17,-16 -35,-11 -57,-12 -57,-3 0,4 9,8 19,8 11,0 23,5 26,10 8,12 22,13 29,1 z m 700,0 c 3,-5 -8,-11 -25,-15 -37,-7 -62,4 -33,15 27,11 52,11 58,0 z m -148,-21 c 8,0 14,-4 14,-10 0,-5 -7,-10 -15,-10 -8,0 -15,2 -15,4 0,2 -2,10 -3,18 -2,7 -2,10 0,6 3,-5 11,-8 19,-8 z m 58,1 c 3,-5 -1,-11 -9,-15 -15,-6 -29,7 -18,18 9,9 21,8 27,-3 z m -587,-18 c 3,-7 -3,-9 -17,-6 -29,8 -37,25 -9,21 12,-1 24,-8 26,-15 z m 2507,-29 c 3,-8 2,-12 -4,-9 -6,3 -10,10 -10,16 0,14 7,11 14,-7 z m -2504,-4 c 0,-5 -5,-10 -11,-10 -5,0 -7,5 -4,10 3,6 8,10 11,10 2,0 4,-4 4,-10 z m 94,-51 c 3,-3 -6,-6 -20,-7 -14,-1 -23,2 -20,7 6,9 31,9 40,0 z m -480,-57 c 3,-5 -1,-9 -9,-9 -8,0 -12,4 -9,9 3,4 7,8 9,8 2,0 6,-4 9,-8 z m 3034,-52 c 0,-22 -5,-40 -10,-40 -5,0 -6,5 -2,11 3,6 0,15 -7,20 -10,6 -11,9 -1,9 6,0 12,5 12,11 0,5 -6,7 -12,3 -9,-5 -9,-2 1,9 19,24 20,22 19,-23 z m -2894,-42 c -5,-8 9,-12 36,-9 12,2 12,0 1,-7 -8,-6 -24,-5 -42,2 -22,8 -34,8 -49,-2 -27,-17 -32,-15 -19,6 8,12 23,18 44,18 18,0 31,-4 29,-8 z m 2887,-15 c -11,-5 -11,-7 0,-14 12,-7 12,-9 0,-9 -11,0 -11,-3 0,-17 11,-15 11,-16 -1,-6 -21,20 -23,53 -2,52 12,0 13,-2 3,-6 z m -2926,-43 c -9,-14 -45,-32 -45,-23 0,7 24,22 48,32 2,0 0,-3 -3,-9 z m 1915,-216 c 0,-2 -7,-4 -15,-4 -8,0 -15,4 -15,10 0,5 7,7 15,4 8,-4 15,-8 15,-10 z m 965,-234 c -1,-11 -5,-23 -10,-27 -4,-5 -5,-3 -1,4 3,6 2,14 -4,18 -14,9 -12,25 3,25 8,0 13,-9 12,-20 z m -28,-476 c -3,-3 -12,-4 -19,-1 -8,3 -5,6 6,6 11,1 17,-2 13,-5 z m -5,-54 c -2,-22 -5,-40 -7,-40 -2,0 -5,18 -7,40 -2,24 1,40 7,40 6,0 9,-16 7,-40 z m -2042,10 c 0,-5 -5,-10 -11,-10 -5,0 -7,5 -4,10 3,6 8,10 11,10 2,0 4,-4 4,-10 z m -1876,-15 c -4,-8 -8,-15 -10,-15 -2,0 -4,7 -4,15 0,8 4,15 10,15 5,0 7,-7 4,-15 z m 1883,-47 c -3,-8 -6,-5 -6,6 -1,11 2,17 5,13 3,-3 4,-12 1,-19 z m 128,-98 c 3,-6 -1,-7 -9,-4 -18,7 -21,14 -7,14 6,0 13,-4 16,-10 z m 85,-66 c 0,-8 -4,-12 -10,-9 -5,3 -10,10 -10,16 0,5 5,9 10,9 6,0 10,-7 10,-16 z m -2410,-6 c 0,-7 -8,-22 -17,-33 -14,-18 -15,-18 -9,-2 3,10 6,25 6,33 0,8 5,14 10,14 6,0 10,-6 10,-12 z m 3079,-82 c 10,-12 8,-13 -8,-9 -12,3 -18,9 -15,14 7,12 10,11 23,-5 z m 79,1 c 9,-11 5,-13 -21,-11 -43,2 -46,5 -17,14 14,4 26,8 26,9 1,1 6,-5 12,-12 z m 85,6 c -7,-2 -21,-2 -30,0 -10,3 -4,5 12,5 17,0 24,-2 18,-5 z m 44,1 c -3,-3 -12,-4 -19,-1 -8,3 -5,6 6,6 11,1 17,-2 13,-5 z m 16,-21 c -7,-2 -19,-2 -25,0 -7,3 -2,5 12,5 14,0 19,-2 13,-5 z m -1235,-28 c 0,-24 -14,-42 -24,-32 -4,4 16,57 21,57 2,0 3,-11 3,-25 z m 499,-1 c -3,-3 -12,-4 -19,-1 -8,3 -5,6 6,6 11,1 17,-2 13,-5 z m 1264,-447 c -8,-8 -11,-4 -11,14 0,33 14,47 18,19 2,-12 -1,-27 -7,-33 z m 193,-84 c -7,-39 -20,-58 -28,-44 -4,6 -2,11 4,11 6,0 8,4 5,10 -5,9 11,50 20,50 2,0 1,-12 -1,-27 z m -132,-335 c -6,-6 -7,0 -4,19 5,21 7,23 10,9 2,-10 0,-22 -6,-28 z m -2672,-28 c 0,-5 -2,-10 -4,-10 -3,0 -8,5 -11,10 -3,6 -1,10 4,10 6,0 11,-4 11,-10 z m 2643,-55 c -3,-9 -8,-14 -10,-11 -3,3 -2,9 2,15 9,16 15,13 8,-4 z m -2488,-65 c 3,-6 -1,-7 -9,-4 -18,7 -21,14 -7,14 6,0 13,-4 16,-10 z m 113,-110 c 3,-9 -1,-11 -11,-7 -11,4 -14,2 -10,-9 3,-7 9,-14 14,-14 20,0 7,-18 -16,-22 -13,-3 -22,-1 -19,4 3,4 -1,21 -9,37 -14,28 -14,28 16,26 17,-1 33,-8 35,-15 z m -81,-22 c -3,-7 -5,-2 -5,12 0,14 2,19 5,13 2,-7 2,-19 0,-25 z m 507,-169 c 5,-4 -14,-7 -43,-6 -28,0 -51,4 -51,8 0,5 13,6 29,3 17,-4 32,-1 36,6 4,6 10,8 14,3 3,-4 10,-11 15,-14 z m 82,6 c -8,-8 -27,-14 -43,-14 -27,2 -27,2 -3,6 14,3 29,9 35,14 16,16 27,10 11,-6 z m -616,1 c 0,-3 -4,-8 -10,-11 -5,-3 -10,-1 -10,4 0,6 5,11 10,11 6,0 10,-2 10,-4 z m 350,-12 c 0,-2 -9,-4 -21,-4 -11,0 -18,4 -14,10 5,8 35,3 35,-6 z m 334,4 c -3,-4 -14,-8 -25,-8 -11,0 -18,4 -15,8 2,4 14,8 25,8 11,0 17,-4 15,-8 z m 116,3 c 0,-6 -4,-13 -10,-16 -5,-3 -10,1 -10,9 0,9 5,16 10,16 6,0 10,-4 10,-9 z M 3380,3719 c 0,-6 -4,-7 -10,-4 -5,3 -10,11 -10,16 0,6 5,7 10,4 6,-3 10,-11 10,-16 z m 26,-8 c -4,-5 0,-12 6,-14 7,-3 3,-6 -9,-6 -16,-1 -21,3 -17,14 4,8 10,15 16,15 5,0 7,-4 4,-9 z m 159,-323 c -4,-36 -5,-38 -13,-38 -5,0 -7,14 -4,30 5,35 20,41 17,8 z"
       id="path1"
       style="fill:#008000" />
    <path
       d="m 6950,7480 c -13,-9 -13,-10 0,-10 8,0 22,5 30,10 13,9 13,10 0,10 -8,0 -22,-5 -30,-10 z"
       id="path2"
       style="fill:#008000" />
    <path
       d="m 4111,4524 c 0,-11 3,-14 6,-6 3,7 2,16 -1,19 -3,4 -6,-2 -5,-13 z"
       id="path3"
       style="fill:#008000" />
  </g>
  <path
     style="fill:#000000;fill-opacity:0.0470588;stroke-width:0.75"
     d="m 273.9459,337.54048 c -63.59459,117.40539 0,0 0,0 z"
     id="path4" />
  <path
     style="fill:none;fill-opacity:0.0470588;stroke-width:0.75"
     id="path5"
     d="m -489.27317,1097.9295 c 1.68814,12.5483 11.49887,20.6657 22.07374,26.663 33.08217,18.7615 47.54475,18.3212 84.4133,20.9118 37.45586,-1.2884 75.2829,-8.4191 109.22887,-24.855 14.2627,-6.9057 19.88414,-11.4813 32.4477,-20.223 9.61607,-7.8338 18.80702,-16.2198 26.24168,-26.199 1.32824,-1.7829 2.43654,-3.7195 3.6525,-5.5808 0.45639,-0.6985 2.08666,-1.6806 1.36454,-2.0988 -3.30077,-1.9116 -7.27734,-2.2885 -10.91601,-3.4327 -20.8521,40.5753 -35.85041,83.795 -51.19229,126.6527 -22.79907,61.3573 -40.93758,124.2235 -52.61741,188.6195 -3.25707,20.1984 -5.47654,40.5489 -6.97282,60.9488 -0.85543,11.6626 -1.01475,21.3437 1.74938,32.6394 20.32432,33.9585 44.26624,-5.6345 57.04903,-22.3764 32.50285,-48.7563 55.77426,-102.9128 77.50311,-157.1148 12.91315,-32.4523 24.48079,-65.4171 37.74393,-97.7294 1.32651,-3.1409 2.43418,-6.4679 4.51901,-9.2348 2.35246,-3.1221 3.78856,-1.0323 3.54091,-1.1317 -9.6641,-3.8773 -8.86956,-5.1128 -5.577,1.9301 6.9838,17.2532 13.81381,34.5828 22.81393,50.8961 11.52507,17.4887 29.12906,32.1828 50.304265,36.1358 3.76161,0.7022 7.618712,0.7256 11.428067,1.0884 36.845049,-8.1163 68.3335963,-30.5335 97.301178,-53.724 0,0 -9.024597,-5.6679 -9.024597,-5.6679 v 0 c -28.778746,23.0635 -60.186577,45.6027 -97.0485,52.8795 -24.203693,-2.7053 -28.218803,-5.3091 -42.955433,-26.2382 -9.08334,-16.1912 -15.87313,-33.48 -22.68517,-50.729 -8.04847,-19.1029 -17.1054,-17.0007 -22.23845,-1.5804 -12.85132,32.5159 -24.30365,65.5548 -37.09118,98.0973 -21.57053,54.1652 -44.83357,108.2401 -77.64596,156.699 -7.91838,10.1673 -13.48851,18.4746 -22.9832,26.918 -2.69763,2.3989 -5.58057,4.6923 -8.82139,6.2827 -2.08,1.0208 -5.72149,-0.6564 -6.81078,1.3885 -0.85017,1.5961 3.78253,4.9908 4.33062,3.2675 0.6516,-2.0487 -2.45787,-3.5278 -3.68682,-5.2917 -3.05295,-11.2407 -2.97187,-20.7679 -2.20407,-32.4624 1.3407,-20.4205 3.45017,-40.7929 6.62621,-61.0144 11.40302,-64.4248 29.31861,-127.3254 52.26389,-188.6158 15.44515,-42.693 30.52327,-85.8791 52.14109,-125.9389 -2.85734,-2.6026 -5.22533,-5.8745 -8.57201,-7.8077 -0.0139,-0.01 -2.61699,4.8029 -4.71715,7.687 -7.25457,9.9625 -16.35599,18.2945 -25.84247,26.0848 -12.46176,8.7429 -17.94944,13.2642 -32.12826,20.162 -33.77633,16.4316 -71.43999,23.51 -108.74953,24.5974 -25.92467,-1.9755 -71.06243,-1.8439 -86.54433,-28.9374 -1.27314,-2.228 -1.17347,-4.9963 -1.76021,-7.4944 z" />
  <path
     style="fill:none;fill-opacity:0.0470588;stroke-width:0.75"
     id="path6"
     d="m 165.14583,489.37856 c -12.94249,39.04425 -24.62103,78.74893 -33.25175,118.99676 -7.43624,34.67764 -11.47183,63.88526 -16.90453,98.85284 -7.74275,62.22564 -15.764273,124.81044 -16.453823,187.60996 0.603826,15.17183 3.534243,26.8572 21.145713,29.86328 3.29853,0.56302 10.46853,-8.0697 11.46922,-9.10388 1.9811,-2.88667 4.2377,-5.60242 5.94331,-8.65995 17.0481,-30.56077 19.46202,-81.72495 22.52311,-115.73707 4.10387,-50.05336 3.70754,-100.51547 -1.29849,-150.49569 -2.90624,-29.01594 -5.39831,-41.30726 -10.09388,-69.51505 -8.74474,-35.47771 -14.51452,-74.09619 -34.39171,-105.66235 -2.06471,-3.27888 -4.7025,-6.15979 -7.05375,-9.23968 -7.885143,-6.60814 -11.629368,-10.80947 -23.581368,-13.24765 -11.877065,-2.42289 -25.237905,27.50258 -28.613907,34.52136 -13.788916,36.19938 -17.800039,74.90221 -17.254773,113.36153 3.025266,25.17531 11.067558,51.30998 32.3254,67.09826 3.968517,2.94743 8.44169,5.14624 12.662533,7.71936 8.162212,3.50989 16.016505,7.84678 24.486625,10.52968 5.66353,1.79391 11.67875,2.33156 17.60097,2.80149 29.92972,2.37492 51.89492,-6.85573 78.1199,-19.6519 23.22915,-13.68074 41.78172,-32.80047 54.13636,-56.78645 2.54606,-4.94304 5.15068,-9.93619 6.69833,-15.27668 1.29932,-4.4836 1.17007,-9.26254 1.75511,-13.89382 -0.70668,-3.84512 -0.66561,-7.90646 -2.12004,-11.53537 -5.42416,-13.53368 -24.16469,-20.69974 -36.73772,-23.05101 -8.48942,-1.58759 -20.98937,3.62491 -28.45245,6.03551 -38.8573,21.22061 -56.40002,55.94136 -71.94166,95.60298 -12.35494,35.22413 -16.14736,72.41549 -18.15217,109.4434 0.35898,7.24608 -0.33623,32.52213 7.77175,37.2835 4.25556,2.49908 9.05192,3.93495 13.57787,5.90235 1.80421,-1.5189 3.90414,-2.7438 5.41264,-4.55677 18.36038,-22.06605 28.85976,-75.12611 35.51541,-102.59933 11.05077,-45.80778 16.20671,-92.66155 23.84733,-139.05825 0.67143,-2.60879 1.34285,-5.21757 2.01428,-7.82636 0.42888,0.12065 1.69789,0.19062 1.28662,0.36194 -2.71477,1.13087 -7.31464,-0.10992 -8.42702,2.61249 -1.98115,4.84858 0.72825,10.45137 0.95088,15.68435 0.6909,16.23951 0.84241,33.5053 1.10203,49.68038 0.15322,56.70734 1.3089,113.44778 -0.26005,170.14198 -0.56339,15.87052 -1.53335,31.72042 -2.57501,47.56492 0,0 9.67728,5.0052 9.67728,5.0052 v 0 c 0.89256,-15.91875 1.74701,-31.8405 2.24319,-47.77785 1.36761,-56.73345 0.0338,-113.50446 0.1395,-170.24887 -0.15474,-15.97583 -0.23127,-33.45144 -0.70431,-49.52537 -0.1536,-5.21905 1.20033,-10.7757 -0.67272,-15.64948 -2.10471,-5.47656 -6.66279,-9.72005 -10.70966,-13.96802 -2.20573,-2.31534 -10.0593,18.58095 -3.62142,8.88366 -7.16608,46.50825 -12.2593,93.38957 -23.33256,139.23684 -5.07607,20.73064 -8.02629,34.33713 -14.40025,54.51249 -4.89916,15.50715 -10.4342,34.40475 -21.47106,47.06738 -1.37631,1.57897 -3.33996,2.52877 -5.00994,3.7932 1.89752,1.71907 3.52746,3.79043 5.69255,5.15723 1.25578,0.79274 -2.14306,-2.10668 -2.89181,-3.38918 -0.98538,-1.68773 -1.65345,-3.55328 -2.24827,-5.41493 -2.87142,-8.98687 -3.38082,-18.5544 -3.282,-27.9072 1.77217,-36.97219 5.45254,-74.10077 17.71666,-109.28667 15.41019,-39.38134 32.86933,-73.91255 71.66564,-94.65782 58.87226,-18.20006 -26.11973,6.87677 28.21471,-5.51373 1.20591,-0.27499 1.35966,-2.99506 2.55783,-2.68813 11.88547,3.04473 16.72545,14.96416 18.02697,25.65089 -0.50571,4.5545 -0.2783,9.25164 -1.51712,13.66351 -1.49214,5.31401 -4.0744,10.27746 -6.5855,15.1927 -12.18811,23.85706 -30.61504,42.79967 -53.7151,56.31361 -19.02034,9.20444 -37.45846,17.54689 -58.88339,19.30791 -18.5574,1.52533 -18.67048,-0.95513 -36.49881,-3.24667 -1.95762,-0.25163 -3.947408,-0.0204 -5.921108,-0.0306 -4.236697,-2.5073 -8.71422,-4.64627 -12.710077,-7.52189 -21.40939,-15.40726 -29.675516,-41.29222 -32.835812,-66.35317 -0.71342,-38.29913 3.254259,-76.86013 17.103787,-112.8736 4.301919,-8.82284 7.561765,-17.07818 13.922545,-24.65069 2.065267,-2.45869 4.81542,-4.24896 7.22313,-6.37344 2.289135,-0.6885 5.32608,-0.23833 6.867412,-2.06548 0.875048,-1.03731 -3.512602,-3.93965 -2.279227,-3.37352 2.722837,1.24982 4.704487,3.71097 7.056727,5.56644 2.408108,3.03956 5.111403,5.86698 7.224303,9.11868 20.37249,31.3527 26.18071,70.18173 35.15318,105.63851 4.79591,28.1577 7.36991,40.54839 10.30655,69.51801 5.05787,49.89538 5.39961,100.30204 1.21721,150.26564 -3.18541,33.73148 -5.83653,84.64215 -23.00041,114.8535 -1.69907,2.9907 -3.9408,5.63865 -5.9112,8.45797 -1.92053,1.9113 -3.58449,4.12095 -5.76161,5.73398 -3.98148,2.94982 -10.69731,1.61722 -0.0362,7.08825 1.65684,0.8502 -2.94125,-2.41425 -3.87239,-4.02705 -3.62594,-6.28035 -3.21954,-11.73405 -3.95268,-18.90923 -0.13164,-62.91862 7.74684,-125.68365 15.31914,-188.02884 11.34124,-73.5165 24.53565,-147.15411 51.51514,-216.84261 z" />
  <path
     style="fill:#004a00;fill-opacity:0.9775281;stroke:#000000;stroke-width:6.52252;stroke-opacity:0.0392157"
     d="m 391.35129,1010.731 c 0,-9.7964 24.84167,-57.27515 46.55023,-88.96941 22.18137,-32.38457 22.79597,-40.0135 5.575,-69.20088 -23.66861,-40.1153 -34.85812,-89.34871 -34.40705,-151.38965 0.90925,-125.05973 61.18873,-218.2625 179.92922,-278.20251 21.18753,-10.69543 42.37671,-17.96735 47.08707,-16.15981 4.71035,1.80753 10.12048,-0.76901 12.02253,-5.72565 5.04175,-13.13861 49.76565,-20.34348 56.69398,-9.13321 7.1934,11.63917 -4.61012,18.7431 -31.35193,18.86909 -11.65901,0.0549 -21.19819,2.83722 -21.19819,6.18287 0,7.58808 -25.49239,16.54579 -40.76576,14.32458 -6.27793,-0.91299 -11.41442,2.19846 -11.41442,6.91435 0,4.71589 -13.1278,15.53863 -29.17288,24.05053 -25.56726,13.56339 -71.39814,56.972 -101.27754,95.92476 -30.23769,39.41984 -44.47553,134.62781 -30.29244,202.56451 8.36133,40.05062 32.05614,100.19226 39.47409,100.19226 1.31671,0 18.47284,-19.90045 38.12474,-44.22323 l 35.73074,-44.22323 -5.6048,-97.02138 c -4.09673,-70.91619 -3.58392,-99.45638 1.90589,-106.07119 13.75062,-16.56848 18.8192,1.47907 22.48512,80.06208 1.99527,42.7709 4.6979,81.27812 6.00586,85.57162 1.30795,4.29349 30.10517,-20.28335 63.99382,-54.61521 59.21492,-59.98936 61.38831,-63.21452 55.77921,-82.77229 -6.52967,-22.76767 -7.98892,-110.68682 -1.93756,-116.73818 2.14441,-2.14441 8.20163,-2.24784 13.46048,-0.22982 7.4786,2.8698 9.18644,14.67302 7.83964,54.1811 -1.6621,48.75722 -1.05484,51.08579 17.48012,67.02889 17.32585,14.90307 23.98584,16.36488 68.16231,14.96098 55.24356,-1.7556 65.26658,0.2774 65.26658,13.23819 0,7.25882 -15.41175,9.05728 -76.63962,8.94341 l -76.63963,-0.14253 -57.11648,60.3426 c -31.41407,33.18843 -56.18908,63.12479 -55.05559,66.52526 1.15669,3.47008 41.95526,6.39024 92.99035,6.65578 76.26756,0.39683 90.92946,2.0507 90.92946,10.2569 0,8.2011 -14.77168,9.88466 -91.3153,10.40743 -50.22342,0.34302 -99.27992,1.0768 -109.01445,1.63064 -13.07277,0.74376 -26.2859,11.325 -50.54955,40.48072 -18.06771,21.71056 -32.85039,42.13857 -32.85039,45.39558 0,13.01239 85.90577,32.53605 143.16142,32.53605 123.16,0 204.28553,-53.82926 263.41609,-174.78458 30.85053,-63.10671 52.76493,-159.99511 60.41688,-267.11624 2.37037,-33.18333 7.03953,-60.33333 10.37592,-60.33333 3.33639,0 4.25215,-2.93513 2.03502,-6.52252 -2.21713,-3.58739 0.25242,-6.52252 5.48789,-6.52252 9.87325,0 10.27055,21.82576 2.39389,131.50654 -5.41979,75.46938 -35.93387,182.18716 -70.79495,247.59325 -72.30426,135.65668 -240.98673,199.32997 -385.22121,145.41107 -37.96932,-14.194 -63.88355,-18.57417 -63.88355,-10.79797 0,13.49636 -60.23848,105.9266 -69.0343,105.9266 -5.07978,0 -9.23596,-3.052 -9.23596,-6.7823 z"
     id="path12"
     transform="scale(0.75)" />
  <path
     style="fill:#004a00;fill-opacity:0.977528;stroke:#000000;stroke-width:6.75608;stroke-opacity:0.0392157"
     d="m 783.70524,595.89164 c 0,-2.9697 10.64083,-4.1572 23.64628,-2.63889 13.00545,1.51832 23.64628,3.94807 23.64628,5.39946 0,1.45138 -10.64083,2.63888 -23.64628,2.63888 -13.00545,0 -23.64628,-2.42975 -23.64628,-5.39945 z"
     id="path13"
     transform="scale(0.75)" />
  <path
     style="fill:#004a00;fill-opacity:0.977528;stroke:#000000;stroke-width:6.75608;stroke-opacity:0.0392157"
     d=""
     id="path14"
     transform="scale(0.75)" />
  <path
     style="fill:#004a00;fill-opacity:0.977528;stroke:#000000;stroke-width:6.75608;stroke-opacity:0.0392157"
     d=""
     id="path15"
     transform="scale(0.75)" />
  <path
     style="fill:#004a00;fill-opacity:0.977528;stroke:#000000;stroke-width:6.75608;stroke-opacity:0.0392157"
     d=""
     id="path16"
     transform="scale(0.75)" />
  <path
     style="fill:#004a00;fill-opacity:0.977528;stroke:#000000;stroke-width:6.75608;stroke-opacity:0.0392157"
     d=""
     id="path17"
     transform="scale(0.75)" />
  <path
     style="fill:#004a00;fill-opacity:0.977528;stroke:#000000;stroke-width:6.75608;stroke-opacity:0.0392157"
     d=""
     id="path18"
     transform="scale(0.75)" />
  <path
     style="fill:#003200;fill-opacity:0.97752798;stroke:#000000;stroke-width:6.75608;stroke-opacity:0.0392157"
     d=""
     id="path19"
     transform="scale(0.75)" />
  <path
     style="fill:#008000;fill-opacity:0.977528;stroke:#000000;stroke-width:5.06706;stroke-opacity:0.0392157"
     d="m 427.79281,663.4661 c -9.75156,-4.20891 -10.74252,-6.66105 -6.15555,-15.23188 10.77388,-20.13118 25.85727,-24.49654 102.39382,-29.63431 40.96484,-2.7499 76.87764,-6.4807 79.80624,-8.29066 2.9285,-1.80996 5.3246,-10.8897 5.3246,-20.17719 0,-19.52527 -2.2718,-20.49339 -60.8047,-25.91106 -20.90161,-1.93461 -39.93616,-4.63538 -42.29898,-6.00171 -2.36283,-1.36635 7.82007,-14.75279 22.62868,-29.74766 l 26.9247,-27.26338 45.7767,-0.0747 c 53.0886,-0.0866 70.3723,-6.44583 72.7261,-26.75814 1.3664,-11.79102 -1.1377,-15.08021 -16.3051,-21.4176 -9.8557,-4.11797 -23.7967,-7.48722 -30.98,-7.48722 -12.6851,0 -12.3213,-0.90996 12.663,-31.66913 26.3214,-32.40544 33.8047,-48.61753 28.6463,-62.06015 -6.6971,-17.45245 -29.2659,-7.82798 -80.5117,34.3342 -22.1266,18.2046 -24.0685,18.90615 -24.0685,8.69533 0,-6.10882 -3.6801,-18.86212 -8.1779,-28.34066 -6.4082,-13.5043 -11.2253,-17.23373 -22.25969,-17.23373 -18.22405,0 -20.23301,6.22322 -20.23301,62.67639 v 46.64636 l -25.21854,24.83932 c -13.87019,13.66164 -26.28683,23.77103 -27.59254,22.46532 -1.3057,-1.3057 -4.87503,-18.02975 -7.93182,-37.16455 -6.95387,-43.52947 -12.2548,-53.59106 -28.23434,-53.59106 -17.74111,0 -22.45578,16.10435 -22.71875,77.60253 -0.2834,66.27652 -5.53527,92.60253 -21.69796,108.76522 l -12.93436,12.93436 -2.31243,-12.24428 c -10.34483,-54.77557 -13.50517,-75.92174 -13.50517,-90.36429 0,-39.22122 54.25753,-119.20137 97.96378,-144.4068 11.61166,-6.69645 48.47424,-21.81925 81.91683,-33.60621 54.8532,-19.3332 66.7046,-21.68092 121.0815,-23.98579 l 60.2767,-2.55495 -2.9358,57.7304 c -5.2834,103.89406 -29.0687,176.72096 -75.9212,232.45958 -44.9411,53.46461 -71.2125,66.30835 -141.21417,69.0378 -28.87175,1.12575 -57.72428,-0.21062 -64.11674,-2.9697 z"
     id="path21" />
</svg>
