<svg xmlns="http://www.w3.org/2000/svg" viewBox="0 0 64 64" fill="none">
  <!-- Hintergrund-Kreis -->
  <circle cx="32" cy="32" r="30" fill="#1a1f2e"/>
  
  <!-- Stilisiertes Blatt/Pflanze -->
  <path d="M32 12 C20 20, 16 32, 20 44 C24 48, 28 48, 32 44 C36 48, 40 48, 44 44 C48 32, 44 20, 32 12Z" 
        fill="#22c55e" opacity="0.9"/>
  
  <!-- Blattadern -->
  <path d="M32 16 L32 40" stroke="#1a1f2e" stroke-width="2" stroke-linecap="round"/>
  <path d="M32 24 L26 30" stroke="#1a1f2e" stroke-width="1.5" stroke-linecap="round"/>
  <path d="M32 24 L38 30" stroke="#1a1f2e" stroke-width="1.5" stroke-linecap="round"/>
  <path d="M32 32 L24 38" stroke="#1a1f2e" stroke-width="1.5" stroke-linecap="round"/>
  <path d="M32 32 L40 38" stroke="#1a1f2e" stroke-width="1.5" stroke-linecap="round"/>
  
  <!-- Kleine Datenbank-Punkte (symbolisiert digital) -->
  <circle cx="20" cy="52" r="3" fill="#22c55e" opacity="0.6"/>
  <circle cx="32" cy="52" r="3" fill="#22c55e" opacity="0.8"/>
  <circle cx="44" cy="52" r="3" fill="#22c55e" opacity="0.6"/>
  
  <!-- Akzent-Ring -->
  <circle cx="32" cy="32" r="28" stroke="#22c55e" stroke-width="1.5" fill="none" opacity="0.3"/>
</svg>
